<svg width="728" height="728" viewBox="0 0 728 728" fill="none" xmlns="http://www.w3.org/2000/svg">
<rect width="728" height="728" rx="140" fill="#470137"/>
<path fill-rule="evenodd" clip-rule="evenodd" d="M568.334 176.185C567.883 176.403 567.339 177.087 567.124 177.705C566.856 178.471 566.732 195.305 566.732 230.564V282.299L562.916 282.059C527.789 279.851 497.805 285.031 472.382 297.702C443.105 312.294 420.029 336.951 407.794 366.715C401.291 382.537 398.244 397.457 397.843 415.461C397.073 449.972 404.561 478.701 419.928 500.2C431.6 516.529 446.007 528.825 463.064 537.015C478.526 544.44 493.907 548.905 512.647 551.412C518.335 552.172 520.378 552.247 535.278 552.24C552.726 552.232 557.355 551.949 571.943 549.999C594.311 547.008 614.495 541.829 633.335 534.246C641.253 531.059 641.015 531.362 640.928 524.586C640.892 521.789 640.565 516.151 640.2 512.056C639.581 505.1 639.524 493.883 639.334 340.887L639.132 177.163L638.253 176.452C637.402 175.762 636.314 175.741 603.263 175.765C580.014 175.782 568.891 175.916 568.334 176.185ZM91.5707 204.298C90.2965 204.608 89.4519 205.612 89.6116 206.627C89.6931 207.144 112.078 245.335 139.357 291.496C166.904 338.111 188.885 375.691 188.798 376.023C188.712 376.351 165.866 413.961 138.029 459.6C110.192 505.239 87.3012 543.04 87.1601 543.604C87.019 544.167 87.0097 545.05 87.1392 545.566L87.3748 546.505L125.952 546.403C160.831 546.312 164.658 546.243 165.878 545.69C167.093 545.138 167.743 544.141 172.441 535.639C181.651 518.968 190.823 502.034 199.427 485.814C204.043 477.113 211.443 463.21 215.873 454.918C220.303 446.626 226.392 434.944 229.405 428.957C232.417 422.97 235.075 418.071 235.31 418.069C235.545 418.068 236.954 420.286 238.441 422.999C239.928 425.711 246.957 438.4 254.061 451.196C273.4 486.028 276.441 491.756 297.149 532.343C299.917 537.769 302.604 542.665 303.12 543.225C303.637 543.784 304.826 544.538 305.764 544.9C307.358 545.515 310.194 545.558 349.345 545.558H391.222L391.342 544.508C391.408 543.93 391.296 542.98 391.092 542.395C390.888 541.81 367.313 502.937 338.703 456.009C310.093 409.08 286.685 370.478 286.685 370.225C286.685 369.973 308.824 333.247 335.882 288.612C362.941 243.977 385.08 207.117 385.08 206.701C385.08 206.285 384.638 205.598 384.099 205.174C383.122 204.405 382.978 204.402 346.863 204.402C306.476 204.402 308.586 204.269 307.387 206.894C306.068 209.782 287.361 244.966 278.529 261.168C265.91 284.318 257.531 300.302 248.922 317.645C244.885 325.777 241.412 332.435 241.203 332.441C240.995 332.447 239.766 330.316 238.472 327.706C231.967 314.584 223.111 298.21 214.967 284.247C200.212 258.951 186.935 234.064 177.746 214.482C173.608 205.664 173.083 205.048 169.182 204.423C166.762 204.036 93.136 203.916 91.5707 204.298ZM554.262 342.146C558.595 342.515 561.299 342.902 564.964 343.679L566.732 344.053V415.846V487.64L565.336 488.027C562.416 488.837 559.564 489.137 550.635 489.572C540.896 490.046 534.799 489.875 528.391 488.948C497.282 484.445 478.993 465.951 473.023 432.956C472.121 427.975 472.045 426.74 472.03 416.95C472.018 408.577 472.154 405.439 472.676 402.06C475.323 384.933 480.559 374.565 492.334 363.135C508.263 347.672 530.531 340.124 554.262 342.146Z" fill="#FF61F6"/>
</svg>
