<svg width="25" height="23" viewBox="0 0 25 23" fill="none" xmlns="http://www.w3.org/2000/svg">
<path d="M5.52795 12.7875C12.1486 17.1875 12.9765 17.1875 19.5971 12.7875C26.2176 8.38749 26.2176 8.38748 19.5971 3.9875C12.9765 -0.412492 12.1486 -0.412505 5.52795 3.9875C2.21766 6.18749 0.5625 7.2875 0.5625 8.3875V18.2875C0.5625 18.895 0.992306 19.3875 1.5225 19.3875C2.05269 19.3875 2.4825 18.895 2.4825 18.2875L2.4825 11.1083C2.4825 10.934 2.65121 10.8284 2.78007 10.9211C3.5139 11.449 4.42986 12.0577 5.52795 12.7875Z" fill="#FCC00A"/>
<path d="M5.52795 13.8876C12.1486 18.2876 12.9765 18.2876 19.5971 13.8876L19.9747 13.6365C20.2744 13.4372 20.6523 13.6558 20.6743 14.0521C20.7076 14.6509 20.7225 15.3262 20.7225 16.0875C20.7225 21.5875 18.8025 22.6875 12.5295 22.6875C5.83692 22.6875 4.4025 21.5875 4.4025 16.0875C4.4025 15.3266 4.41674 14.6515 4.44884 14.0529C4.47013 13.6558 4.84864 13.4359 5.14897 13.6356L5.52795 13.8876Z" fill="#FCC00A"/>
</svg>
