<svg width="1199" height="957" viewBox="0 0 1199 957" fill="none" xmlns="http://www.w3.org/2000/svg">
<rect x="299.75" y="126.725" width="599.5" height="704" fill="white"/>
<path fill-rule="evenodd" clip-rule="evenodd" d="M231.5 2.15963C183.143 9.77663 144.695 47.6126 134.506 97.6076C132.667 106.635 132.447 112.192 132.101 158.341C131.733 207.595 131.252 217.961 127.913 248.639C119.527 325.688 97.744 385.16 66.417 416.532C49.563 433.41 27.39 444.726 5.915 447.409L0 448.147V478.639V509.131L5.915 509.869C27.39 512.552 49.563 523.868 66.417 540.746C97.744 572.118 119.527 631.59 127.913 708.639C131.255 739.341 131.737 749.625 132.045 796.639C132.372 846.742 132.65 852.818 135.098 863.392C146.477 912.554 187.56 950.178 235.884 955.692C242.086 956.4 360.397 956.624 606 956.394C1001.22 956.025 968.578 956.522 986.451 950.598C1025.99 937.49 1056.52 901.482 1065.21 857.682C1066.65 850.425 1066.86 843.72 1066.63 813.139C1066.16 749.629 1069.89 703.236 1079.05 658.639C1097.4 569.287 1135.58 518.86 1191.42 510.226L1199 509.054V478.639V448.224L1191.42 447.052C1157.68 441.835 1129.61 420.671 1109.11 384.978C1096.89 363.699 1085.96 332.307 1079.05 298.639C1069.89 254.078 1066.18 207.844 1066.63 144.139C1066.84 113.701 1066.62 106.819 1065.2 99.5956C1060.07 73.6186 1047.34 50.1416 1028.83 32.5436C1013.16 17.6366 996.673 8.80063 973.5 2.88163C967.509 1.35063 938.543 1.20562 603.5 1.02062C303.964 0.855625 238.504 1.05563 231.5 2.15963ZM656.5 224.957C686.936 229.826 711.338 239.249 731.399 253.881C750.833 268.056 767.092 291.345 773.82 314.644C779.533 334.431 780.041 361.501 775.039 379.604C769.684 398.982 758.964 417.306 744.564 431.696C730.38 445.87 714.4 455.218 694.567 460.944L686.296 463.332L694.099 464.59C715.288 468.009 740.847 478.448 755.988 489.868C782.054 509.528 798.006 536.552 803.096 569.669C805.095 582.674 804.408 605.622 801.599 619.675C788.774 683.846 738.014 723.392 656.5 732.721C649.16 733.561 611.31 734.054 530.75 734.36L415.5 734.799V478.669V222.538L530.75 222.908C632.66 223.234 647.215 223.471 656.5 224.957ZM498.5 365.242V439.845L554.25 439.348C605.362 438.892 610.943 438.676 621.331 436.749C647.377 431.919 663.94 424.295 676.63 411.298C690.824 396.76 697.462 374.992 694.658 352.178C690.556 318.798 668.578 298.364 630.058 292.116C622.8 290.939 608.83 290.646 559.75 290.643L498.5 290.639V365.242ZM498.5 584.638V666.741L566.75 666.396C642.624 666.011 643.465 665.948 664.5 659.013C679.097 654.2 688.379 648.712 698.114 639.139C704.959 632.408 706.971 629.632 710.797 621.639C716.988 608.709 718.922 599.392 718.792 583.139C718.604 559.567 712.93 544.822 698.543 530.521C691.152 523.175 688.334 521.148 679.437 516.782C668.277 511.305 656.571 507.591 642.03 504.913C634.33 503.496 623.091 503.198 565.75 502.893L498.5 502.535V584.638Z" fill="url(#paint0_linear_239_21)"/>
<defs>
<linearGradient id="paint0_linear_239_21" x1="0" y1="478.725" x2="1199" y2="478.725" gradientUnits="userSpaceOnUse">
<stop stop-color="#8B13FD"/>
<stop offset="1" stop-color="#6E11F4"/>
</linearGradient>
</defs>
</svg>
