<svg width="14" height="14" viewBox="0 0 14 14" fill="none" xmlns="http://www.w3.org/2000/svg">
<path d="M1.36658 1.24154C2.02962 0.578503 3.10462 0.578503 3.76766 1.24154L7.36934 4.84322L10.9709 1.2417C11.6339 0.57866 12.7089 0.57866 13.3719 1.2417C14.035 1.90474 14.035 2.97974 13.3719 3.64278L9.77042 7.2443L13.372 10.8459C14.035 11.5089 14.035 12.5839 13.372 13.2469C12.7089 13.91 11.6339 13.91 10.9709 13.2469L7.36934 9.64538L3.76762 13.2471C3.10458 13.9101 2.02958 13.9101 1.36654 13.2471C0.703502 12.5841 0.703502 11.5091 1.36654 10.846L4.96826 7.2443L1.36658 3.64262C0.703543 2.97958 0.703541 1.90458 1.36658 1.24154Z" fill="white"/>
</svg>
