<svg width="25" height="25" viewBox="0 0 25 25" fill="none" xmlns="http://www.w3.org/2000/svg">
<rect x="4.125" y="8.09375" width="15.0938" height="7.25" fill="white"/>
<path fill-rule="evenodd" clip-rule="evenodd" d="M24.25 11.6354C24.25 2.74656 22.132 0.96875 12.25 0.96875C2.368 0.96875 0.25 2.85142 0.25 11.6354C0.25 17.2995 1.25024 20.9687 5.75024 20.9687C8.1551 20.9687 8.87048 22.1111 9.53663 23.1749C10.117 24.1016 10.66 24.9687 12.2502 24.9688C13.8406 24.9688 14.3836 24.1017 14.964 23.1749C15.6301 22.1111 16.3454 20.9687 18.7502 20.9687C23.2502 20.9687 24.25 17.4132 24.25 11.6354ZM17.7722 10.116C18.2432 10.4044 18.3913 11.02 18.1029 11.491L18.1018 11.4927L18.1006 11.4947L18.0975 11.4997L18.0888 11.5135C18.0851 11.5194 18.0807 11.5263 18.0756 11.5342C18.0714 11.5406 18.0668 11.5478 18.0617 11.5555C18.0394 11.5896 18.0084 11.6357 17.969 11.6914C17.8906 11.8024 17.7776 11.9534 17.6327 12.124C17.3475 12.4596 16.9155 12.8988 16.3544 13.2522C15.7899 13.6078 15.0565 13.8996 14.1977 13.8662C13.3268 13.8323 12.4457 13.4685 11.5915 12.7212C11.4511 12.5983 11.3177 12.4974 11.1913 12.4148C10.8007 12.1596 10.4772 12.0793 10.2246 12.0695C9.87803 12.056 9.54 12.1705 9.21165 12.3773C8.87985 12.5864 8.59757 12.8659 8.39165 13.1083C8.29104 13.2268 8.21427 13.3297 8.16438 13.4003C8.13955 13.4355 8.12174 13.4621 8.1113 13.478L8.10081 13.4943C7.81156 13.9626 7.19776 14.1093 6.72788 13.8216C6.25686 13.5332 6.10929 12.9168 6.39767 12.4458L6.39821 12.4449L6.39945 12.4429L6.40255 12.4379L6.41121 12.4241C6.41806 12.4133 6.4271 12.3992 6.43829 12.3821C6.46063 12.348 6.49165 12.3019 6.531 12.2462C6.60946 12.1351 6.72242 11.9842 6.86734 11.8136C7.1525 11.4779 7.58449 11.0386 8.14555 10.6852C8.71005 10.3295 9.44345 10.0377 10.3022 10.071C11.1732 10.1048 12.0544 10.4687 12.9085 11.216C13.1093 11.3917 13.296 11.5226 13.4681 11.6192C13.788 11.7986 14.0581 11.8593 14.2755 11.8677C14.6221 11.8812 14.9601 11.7668 15.2885 11.56C15.6203 11.351 15.9025 11.0715 16.1084 10.8291C16.1655 10.7619 16.215 10.6995 16.2562 10.6454C16.2876 10.6042 16.3142 10.5676 16.3357 10.5371C16.3605 10.502 16.3784 10.4754 16.3888 10.4595L16.3978 10.4456L16.3987 10.4442L16.3994 10.443C16.6887 9.97482 17.3024 9.82827 17.7722 10.116Z" fill="url(#paint0_linear_296_5)"/>
<defs>
<linearGradient id="paint0_linear_296_5" x1="1.375" y1="2.40625" x2="28" y2="26.5937" gradientUnits="userSpaceOnUse">
<stop stop-color="#FF0066"/>
<stop offset="1" stop-color="#FCAF3C"/>
</linearGradient>
</defs>
</svg>
