<svg width="24" height="24" viewBox="0 0 24 24" fill="none" xmlns="http://www.w3.org/2000/svg">
<g clip-path="url(#clip0_454_6)">
<path d="M18.9688 7.125H3.875V14.375H18.9688V7.125Z" fill="white"/>
<path fill-rule="evenodd" clip-rule="evenodd" d="M24 10.6666C24 1.77781 21.882 0 12 0C2.118 0 0 1.88267 0 10.6666C0 16.3307 1.00024 20 5.50024 20C7.9051 20 8.62048 21.1424 9.28663 22.2062C9.867 23.1329 10.41 23.9999 12.0002 24C13.5906 24 14.1336 23.133 14.714 22.2062C15.3801 21.1424 16.0954 20 18.5002 20C23.0002 20 24 16.4444 24 10.6666ZM17.5222 9.14725C17.9932 9.43565 18.1413 10.0513 17.8529 10.5223L17.8518 10.5239L17.8506 10.526L17.8475 10.5309L17.8388 10.5448C17.8351 10.5507 17.8307 10.5575 17.8256 10.5654C17.8214 10.5718 17.8168 10.5791 17.8117 10.5868C17.7894 10.6209 17.7584 10.6669 17.719 10.7226C17.6406 10.8336 17.5276 10.9846 17.3827 11.1552C17.0975 11.4908 16.6655 11.9301 16.1044 12.2835C15.5399 12.6391 14.8065 12.9309 13.9477 12.8975C13.0768 12.8636 12.1957 12.4998 11.3415 11.7524C11.2011 11.6295 11.0677 11.5286 10.9413 11.446C10.5507 11.1908 10.2272 11.1105 9.9746 11.1007C9.62803 11.0872 9.29 11.2018 8.96165 11.4086C8.62985 11.6177 8.34757 11.8972 8.14165 12.1396C8.04104 12.2581 7.96427 12.361 7.91438 12.4316C7.88955 12.4668 7.87174 12.4933 7.8613 12.5092L7.85081 12.5255C7.56156 12.9938 6.94776 13.1405 6.47788 12.8528C6.00686 12.5644 5.85929 11.948 6.14767 11.477L6.14821 11.4761L6.14945 11.4741L6.15255 11.4691L6.16121 11.4553C6.16806 11.4445 6.1771 11.4305 6.18829 11.4134C6.21063 11.3793 6.24165 11.3331 6.281 11.2774C6.35946 11.1663 6.47242 11.0154 6.61734 10.8448C6.9025 10.5091 7.33449 10.0698 7.89555 9.71645C8.46005 9.36075 9.19345 9.06895 10.0522 9.10225C10.9232 9.13605 11.8044 9.49995 12.6585 10.2472C12.8593 10.4229 13.046 10.5538 13.2181 10.6504C13.538 10.8298 13.8081 10.8905 14.0255 10.8989C14.3721 10.9124 14.7101 10.7981 15.0385 10.5913C15.3703 10.3823 15.6525 10.1027 15.8584 9.86035C15.9155 9.79315 15.965 9.73075 16.0062 9.67665C16.0376 9.63545 16.0642 9.59885 16.0857 9.56835C16.1105 9.53325 16.1284 9.50665 16.1388 9.49075L16.1478 9.47685L16.1487 9.47545L16.1494 9.47425C16.4387 9.00607 17.0524 8.85952 17.5222 9.14725Z" fill="url(#paint0_linear_454_6)"/>
<path fill-rule="evenodd" clip-rule="evenodd" d="M24 10.6666C24 1.77781 21.882 0 12 0C2.118 0 0 1.88267 0 10.6666C0 16.3307 1.00024 20 5.50024 20C7.9051 20 8.62048 21.1424 9.28663 22.2062C9.867 23.1329 10.41 23.9999 12.0002 24C13.5906 24 14.1336 23.133 14.714 22.2062C15.3801 21.1424 16.0954 20 18.5002 20C23.0002 20 24 16.4444 24 10.6666ZM17.5222 9.14725C17.9932 9.43565 18.1413 10.0513 17.8529 10.5223L17.8518 10.5239L17.8506 10.526L17.8475 10.5309L17.8388 10.5448C17.8351 10.5507 17.8307 10.5575 17.8256 10.5654C17.8214 10.5718 17.8168 10.5791 17.8117 10.5868C17.7894 10.6209 17.7584 10.6669 17.719 10.7226C17.6406 10.8336 17.5276 10.9846 17.3827 11.1552C17.0975 11.4908 16.6655 11.9301 16.1044 12.2835C15.5399 12.6391 14.8065 12.9309 13.9477 12.8975C13.0768 12.8636 12.1957 12.4998 11.3415 11.7524C11.2011 11.6295 11.0677 11.5286 10.9413 11.446C10.5507 11.1908 10.2272 11.1105 9.9746 11.1007C9.62803 11.0872 9.29 11.2018 8.96165 11.4086C8.62985 11.6177 8.34757 11.8972 8.14165 12.1396C8.04104 12.2581 7.96427 12.361 7.91438 12.4316C7.88955 12.4668 7.87174 12.4933 7.8613 12.5092L7.85081 12.5255C7.56156 12.9938 6.94776 13.1405 6.47788 12.8528C6.00686 12.5644 5.85929 11.948 6.14767 11.477L6.14821 11.4761L6.14945 11.4741L6.15255 11.4691L6.16121 11.4553C6.16806 11.4445 6.1771 11.4305 6.18829 11.4134C6.21063 11.3793 6.24165 11.3331 6.281 11.2774C6.35946 11.1663 6.47242 11.0154 6.61734 10.8448C6.9025 10.5091 7.33449 10.0698 7.89555 9.71645C8.46005 9.36075 9.19345 9.06895 10.0522 9.10225C10.9232 9.13605 11.8044 9.49995 12.6585 10.2472C12.8593 10.4229 13.046 10.5538 13.2181 10.6504C13.538 10.8298 13.8081 10.8905 14.0255 10.8989C14.3721 10.9124 14.7101 10.7981 15.0385 10.5913C15.3703 10.3823 15.6525 10.1027 15.8584 9.86035C15.9155 9.79315 15.965 9.73075 16.0062 9.67665C16.0376 9.63545 16.0642 9.59885 16.0857 9.56835C16.1105 9.53325 16.1284 9.50665 16.1388 9.49075L16.1478 9.47685L16.1487 9.47545L16.1494 9.47425C16.4387 9.00607 17.0524 8.85952 17.5222 9.14725Z" fill="url(#paint1_linear_454_6)"/>
</g>
<defs>
<linearGradient id="paint0_linear_454_6" x1="-2" y1="28" x2="22" y2="1.5" gradientUnits="userSpaceOnUse">
<stop stop-color="#0971F0"/>
<stop offset="1" stop-color="#138EF0"/>
</linearGradient>
<linearGradient id="paint1_linear_454_6" x1="23.9885" y1="7.32982" x2="-4.7952e-07" y2="17.2644" gradientUnits="userSpaceOnUse">
<stop stop-color="#F15F79"/>
<stop offset="1" stop-color="#E938C0"/>
</linearGradient>
<clipPath id="clip0_454_6">
<rect width="24" height="24" fill="white"/>
</clipPath>
</defs>
</svg>
