<svg width="133" height="150" viewBox="0 0 133 150" fill="none" xmlns="http://www.w3.org/2000/svg">
<rect x="20.7734" y="20.2443" width="91.5" height="102" fill="white"/>
<mask id="mask0_219_33" style="mask-type:alpha" maskUnits="userSpaceOnUse" x="0" y="0" width="133" height="150">
<path fill-rule="evenodd" clip-rule="evenodd" d="M0.644463 0.327059C0.681841 0.506848 3.37998 30.7202 6.64048 67.4676C9.90079 104.215 12.6313 134.355 12.7083 134.445C12.7851 134.534 24.9096 137.956 39.6516 142.048L66.4551 149.489L93.3184 142.041C108.093 137.945 120.234 134.541 120.298 134.477C120.361 134.414 123.082 104.446 126.344 67.8817C129.606 31.3177 132.303 1.08621 132.339 0.70084L132.403 0H66.4894C3.81357 0 0.579612 0.0160726 0.644463 0.327059ZM107.817 27.7335C107.817 27.8768 107.141 35.5511 106.315 44.7873C105.489 54.0236 103.811 72.7999 102.586 86.5123C101.361 100.225 100.291 111.507 100.21 111.584C100.016 111.766 66.9541 120.918 66.4898 120.918C66.2244 120.918 39.9209 113.688 33.5247 111.857L32.5875 111.589L31.5024 99.2932C30.9056 92.5307 30.3706 86.6824 30.3132 86.2968L30.2091 85.596H38.5289H46.8485L46.9519 86.2034C47.0085 86.5373 47.2859 89.5078 47.5681 92.804L48.0811 98.7972L57.2533 101.27L66.4255 103.742L75.5806 101.277C80.6158 99.9213 84.752 98.8006 84.7722 98.7864C84.8416 98.738 86.6994 77.6858 86.6396 77.626C86.6067 77.5929 73.7389 77.5087 58.0446 77.4386C39.3406 77.355 29.5094 77.247 29.5094 77.1253C29.5094 76.7448 28.2041 62.301 28.109 61.6272L28.0098 60.9264H58.1014C83.3825 60.9264 88.1931 60.8857 88.1931 60.6717C88.1931 60.3046 89.468 45.8479 89.5839 44.9005L89.6811 44.1062H58.1876C33.1595 44.1062 26.6782 44.0582 26.6157 43.8726C26.5724 43.7442 26.2375 40.2329 25.8714 36.0699C25.5052 31.9069 25.167 28.2695 25.1195 27.9869L25.0333 27.4729H66.425C101.697 27.4729 107.817 27.5114 107.817 27.7335Z" fill="#2754E8"/>
</mask>
<g mask="url(#mask0_219_33)">
<rect x="-24.9766" y="-28" width="91.5" height="209" fill="#2754E8"/>
<rect x="66.5234" y="-28" width="91.5" height="209" fill="#2965F1"/>
</g>
</svg>
