<svg width="24" height="24" viewBox="0 0 24 24" fill="none" xmlns="http://www.w3.org/2000/svg">
<path fill-rule="evenodd" clip-rule="evenodd" d="M8.57278 2.85406C8.40698 2.88334 7.83354 3.0013 7.63604 3.04677C6.40201 3.33086 5.195 3.7387 4.03762 4.26267C3.93443 4.30938 3.8354 4.35505 3.81755 4.36416C3.79112 4.37765 3.763 4.41483 3.66609 4.56444C1.86481 7.34536 0.769669 10.2264 0.368108 13.2407C0.29407 13.7964 0.244812 14.3391 0.210904 14.9728C0.195297 15.2644 0.195333 16.697 0.210957 16.9876C0.233014 17.398 0.278119 18.0321 0.288291 18.0746C0.290606 18.0843 0.311365 18.1061 0.334403 18.123C0.575136 18.2992 0.670013 18.3674 0.84467 18.49C1.9328 19.2535 3.08059 19.8991 4.26907 20.4162C4.82572 20.6584 5.3799 20.8688 5.97755 21.065C6.12739 21.1141 6.25296 21.1544 6.25658 21.1544C6.26362 21.1544 6.49149 20.8309 6.60834 20.6551C6.90234 20.2126 7.19475 19.7151 7.42958 19.2579L7.53898 19.0449L7.35867 18.9728C6.89424 18.7873 6.42142 18.5642 5.98348 18.3241C5.79885 18.2229 5.53279 18.0677 5.53279 18.0613C5.53279 18.0583 5.56935 18.0282 5.61403 17.9945C5.69464 17.9337 5.89652 17.7726 5.97662 17.7053L6.01836 17.6701L6.18871 17.7479C7.69217 18.4338 9.29523 18.8567 10.8925 18.9888C11.2609 19.0193 11.4114 19.0259 11.8558 19.0309C12.4259 19.0372 12.8188 19.0205 13.3553 18.9668C14.8445 18.8179 16.3277 18.4133 17.7379 17.7713C17.8224 17.7328 17.9061 17.6943 17.9239 17.6857L17.9562 17.67L18.0697 17.7626C18.1321 17.8135 18.2409 17.9 18.3113 17.9547C18.3818 18.0095 18.4405 18.057 18.4417 18.0602C18.443 18.0634 18.3714 18.1084 18.2827 18.16C17.742 18.4747 17.2139 18.7329 16.6279 18.969C16.5258 19.0102 16.4405 19.0455 16.4384 19.0476C16.4259 19.0601 16.7803 19.7124 16.9974 20.0762C17.2307 20.4674 17.6893 21.1535 17.7177 21.1541C17.7333 21.1544 18.2252 20.9918 18.4527 20.9112C20.118 20.3208 21.6581 19.5239 23.1329 18.4895C23.2925 18.3775 23.6652 18.1081 23.6832 18.0917C23.6886 18.0867 23.7004 17.9555 23.7234 17.6448C23.7598 17.1528 23.7814 16.6903 23.7815 16.4022C23.7815 16.2947 23.7848 16.2321 23.7904 16.2321C23.7961 16.2321 23.7992 16.1407 23.7992 15.9758C23.7992 15.8108 23.7961 15.7195 23.7904 15.7195C23.7848 15.7195 23.7815 15.6613 23.7815 15.5626C23.7814 15.3822 23.7697 15.0735 23.7504 14.743C23.5901 11.9988 22.883 9.37058 21.6321 6.86949C21.2444 6.09429 20.8416 5.39287 20.3366 4.61382L20.1808 4.37344L20.1232 4.34744C19.7499 4.17912 19.5794 4.10431 19.386 4.02396C18.4292 3.62647 17.4018 3.29557 16.3937 3.0602C16.0001 2.9683 15.3369 2.83691 15.3134 2.84617C15.2791 2.85966 14.8567 3.72818 14.6967 4.11409C14.6867 4.13828 14.6834 4.13833 14.5361 4.11671C12.8894 3.87497 11.1169 3.87345 9.469 4.11236C9.38337 4.12477 9.30762 4.13372 9.30066 4.13224C9.29369 4.13076 9.26583 4.07786 9.23875 4.01467C9.12092 3.73977 8.83635 3.15678 8.69957 2.91002C8.66131 2.84099 8.65716 2.83916 8.57278 2.85406ZM8.36952 10.5095C9.16694 10.6452 9.82059 11.2559 10.0783 12.106C10.1161 12.2308 10.1482 12.3823 10.1691 12.5337C10.1912 12.6947 10.1911 13.0866 10.1689 13.2495C10.1052 13.717 9.94248 14.1313 9.68926 14.4705C9.33846 14.9403 8.87252 15.2278 8.32975 15.3093C8.19833 15.3291 7.93886 15.329 7.80836 15.3092C7.15317 15.2096 6.58086 14.7806 6.24508 14.1373C5.98191 13.6331 5.89054 13.0453 5.98412 12.4586C6.04115 12.101 6.1775 11.7489 6.37598 11.4467C6.54964 11.1823 6.79451 10.9408 7.05278 10.7792C7.14711 10.7202 7.33301 10.6307 7.4372 10.5941C7.54249 10.5572 7.70109 10.5189 7.79952 10.5066C7.84327 10.5011 7.889 10.495 7.90115 10.4929C7.95329 10.484 8.28988 10.496 8.36952 10.5095ZM16.2081 10.5095C16.8716 10.6224 17.4361 11.0586 17.7582 11.7074C17.8881 11.969 17.9665 12.2241 18.0081 12.5204C18.0301 12.677 18.0301 13.0973 18.0081 13.2539C17.9377 13.756 17.7567 14.1899 17.4663 14.553C17.3262 14.7282 17.0945 14.9316 16.9038 15.0467C16.0044 15.5897 14.8892 15.3226 14.2514 14.4116C13.7157 13.6463 13.6372 12.5989 14.0512 11.7384C14.2362 11.3537 14.5083 11.0354 14.8409 10.8145C15.1137 10.6334 15.3863 10.535 15.7309 10.4933C15.8019 10.4848 16.1274 10.4958 16.2081 10.5095Z" fill="white"/>
</svg>
