<svg width="22" height="22" viewBox="0 0 22 22" fill="none" xmlns="http://www.w3.org/2000/svg">
<path d="M1.00502 3.32786C0.945595 2.9164 1.42769 2.77632 1.72166 3.07029L5.77499 7.12364C5.93734 7.28598 6.01851 7.36716 6.08195 7.47305C6.14538 7.57893 6.30447 8.10419 6.62265 9.15471C6.7163 9.46392 6.88534 9.75518 7.12976 9.99961C7.92226 10.7921 9.20715 10.7921 9.99964 9.99961C10.7921 9.20711 10.7921 7.92221 9.99964 7.12971C9.75525 6.88532 9.46403 6.71629 9.15486 6.62263C8.10457 6.30446 7.57943 6.14537 7.47355 6.08194C7.36768 6.01851 7.28651 5.93734 7.12418 5.77501L3.07039 1.72121C2.77661 1.42742 2.91664 0.945628 3.32786 1.00502L11.6314 2.20422C13.7343 2.50792 15.5366 3.87141 16.4022 5.81349L18.0009 9.60212C18.2544 10.2029 18.3812 10.5032 18.3226 10.8027C18.2641 11.1021 18.0336 11.3327 17.5725 11.7937L11.7937 17.5726C11.3326 18.0336 11.1021 18.2641 10.8026 18.3227C10.5032 18.3812 10.2028 18.2545 9.60209 18.001L5.81347 16.4023C3.8714 15.5366 2.50792 13.7343 2.20422 11.6315L1.00502 3.32786Z" fill="white"/>
<path d="M13.971 18.101C13.2153 18.8567 12.8374 19.2346 12.9158 19.7366C12.9941 20.2386 13.3606 20.4274 14.0935 20.805C14.3459 20.935 14.5888 21 14.8475 21C15.6758 21 16.3424 20.3334 17.6757 19.0002L19.0002 17.6757C20.3334 16.3424 21 15.6758 21 14.8475C21 14.5888 20.935 14.3459 20.805 14.0935C20.4274 13.3606 20.2386 12.9941 19.7366 12.9158C19.2346 12.8374 18.8567 13.2153 18.101 13.971L13.971 18.101Z" fill="white"/>
</svg>
