<svg width="22" height="22" viewBox="0 0 22 22" fill="none" xmlns="http://www.w3.org/2000/svg">
<path d="M1.00502 3.32786C0.945593 2.9164 1.42769 2.77632 1.72166 3.07029L5.77499 7.12364C5.93734 7.28598 6.01851 7.36716 6.08195 7.47305C6.14538 7.57893 6.30447 8.10419 6.62265 9.15471C6.7163 9.46392 6.88534 9.75518 7.12976 9.99961C7.92226 10.7921 9.20715 10.7921 9.99964 9.99961C10.7921 9.20711 10.7921 7.92221 9.99964 7.12971C9.75525 6.88532 9.46403 6.71629 9.15486 6.62263C8.10457 6.30446 7.57943 6.14537 7.47355 6.08194C7.36768 6.01851 7.28651 5.93734 7.12418 5.77501L3.07039 1.72121C2.77661 1.42742 2.91664 0.945621 3.32786 1.00502L11.6314 2.20422C13.7343 2.50792 15.5366 3.87141 16.4022 5.81349L18.0009 9.60212C18.2544 10.2029 18.3812 10.5032 18.3226 10.8027C18.2641 11.1021 18.0336 11.3327 17.5725 11.7937L11.7937 17.5726C11.3326 18.0336 11.1021 18.2641 10.8026 18.3227C10.5032 18.3812 10.2028 18.2545 9.60209 18.001L5.81347 16.4023C3.8714 15.5366 2.50792 13.7343 2.20422 11.6315L1.00502 3.32786Z" fill="url(#paint0_linear_310_17)"/>
<path d="M13.9716 18.1016C13.2159 18.8573 12.838 19.2352 12.9164 19.7372C12.9947 20.2392 13.3612 20.428 14.0941 20.8056C14.3465 20.9356 14.5894 21.0006 14.8481 21.0006C15.6764 21.0006 16.343 20.334 17.6763 19.0008L19.0008 17.6763C20.334 16.343 21.0006 15.6764 21.0006 14.8481C21.0006 14.5894 20.9356 14.3465 20.8056 14.0941C20.428 13.3612 20.2392 12.9947 19.7372 12.9164C19.2352 12.838 18.8573 13.2159 18.1016 13.9716L13.9716 18.1016Z" fill="url(#paint1_linear_310_17)"/>
<defs>
<linearGradient id="paint0_linear_310_17" x1="0.25" y1="1" x2="19.125" y2="20.125" gradientUnits="userSpaceOnUse">
<stop stop-color="#F60666"/>
<stop offset="1" stop-color="#F9B249"/>
</linearGradient>
<linearGradient id="paint1_linear_310_17" x1="0.25" y1="1" x2="19.125" y2="20.125" gradientUnits="userSpaceOnUse">
<stop stop-color="#F60666"/>
<stop offset="1" stop-color="#F9B249"/>
</linearGradient>
</defs>
</svg>
