<svg width="24" height="25" viewBox="0 0 24 25" fill="none" xmlns="http://www.w3.org/2000/svg">
<path d="M21.8975 11.9029L16.4697 14.0974H20.884C20.5232 14.7923 20.1218 15.4675 19.6735 16.1099L13.4737 18.5894H17.4813C14.7047 21.0558 10.7387 22.3486 5.10501 21.0609L1.9171 24.2488C1.4782 24.6877 0.767906 24.6874 0.329002 24.2488C-0.109667 23.8101 -0.109667 23.0996 0.329002 22.6607L12.186 10.8038C12.4127 10.5101 12.4032 10.093 12.1339 9.82348C11.8414 9.53104 11.3674 9.53104 11.0755 9.82348L3.18642 17.7125C1.19043 3.33538 17.209 1.00133 22.4497 0.625431C23.3326 0.562076 24.0598 1.2894 23.9961 2.17189C23.844 4.29601 23.3668 8.19233 21.8975 11.9029Z" fill="#F7991D"/>
</svg>
