<svg width="448" height="448" viewBox="0 0 448 448" fill="none" xmlns="http://www.w3.org/2000/svg">
<g clip-path="url(#clip0_219_57)">
<rect x="3.39062" y="207.859" width="283.277" height="282.29" rx="50" transform="rotate(-45 3.39062 207.859)" fill="white"/>
<path d="M439.551 204.05L244.001 8.45008C238.587 3.04151 231.248 0.00341797 223.596 0.00341797C215.943 0.00341797 208.604 3.04151 203.191 8.45008L162.531 49.0801L214.051 100.6C241.111 91.4601 266.731 117.37 257.441 144.28L307.101 193.94C341.331 182.14 368.281 224.94 342.571 250.63C316.081 277.12 272.361 247.76 286.571 213.29L240.221 167V288.85C265.521 301.39 262.481 330.7 249.301 343.85C242.861 350.286 234.13 353.901 225.026 353.901C215.922 353.901 207.19 350.286 200.751 343.85C183.181 326.25 189.681 296.94 212.001 287.85V164.85C191.201 156.34 187.401 134.11 193.361 119.85L142.571 69.0001L8.4508 203.14C3.03978 208.552 0 215.892 0 223.545C0 231.198 3.03978 238.538 8.4508 243.95L204.061 439.55C209.473 444.958 216.81 447.996 224.461 447.996C232.111 447.996 239.449 444.958 244.861 439.55L439.551 244.86C444.962 239.448 448.002 232.108 448.002 224.455C448.002 216.802 444.962 209.462 439.551 204.05Z" fill="#F05033"/>
</g>
<defs>
<clipPath id="clip0_219_57">
<rect width="448" height="448" fill="white"/>
</clipPath>
</defs>
</svg>
