<svg width="22" height="22" viewBox="0 0 22 22" fill="none" xmlns="http://www.w3.org/2000/svg">
<mask id="path-1-outside-1_287_29" maskUnits="userSpaceOnUse" x="-0.5" y="-0.5" width="23" height="23" fill="black">
<rect fill="white" x="-0.5" y="-0.5" width="23" height="23"/>
<path fill-rule="evenodd" clip-rule="evenodd" d="M10.1443 0.517733C9.08507 0.610112 8.10434 0.839073 7.14417 1.21819C4.23435 2.36707 1.99569 4.73273 1.01756 7.6924C0.650627 8.8027 0.500316 9.7581 0.5 10.982C0.499685 12.2075 0.65605 13.1826 1.03557 14.3216C1.5561 15.8839 2.39292 17.229 3.58864 18.4257C4.4834 19.3211 5.3347 19.9272 6.46808 20.4756C7.57933 21.0133 8.69498 21.3293 9.94506 21.4604C10.4444 21.5128 11.5584 21.5133 12.0486 21.4613C14.2613 21.2268 16.2629 20.3551 17.91 18.9088C19.7089 17.3291 20.9154 15.1997 21.3432 12.849C21.4644 12.1834 21.5 11.7595 21.5 10.982C21.5 10.2306 21.4666 9.81166 21.3555 9.16856C20.9609 6.88363 19.7611 4.72155 18.0332 3.18136C16.3783 1.70617 14.4259 0.823532 12.2239 0.5551C11.8046 0.50398 10.5588 0.481602 10.1443 0.517733ZM11.5922 2.1475C13.7212 2.29699 15.6659 3.16513 17.1826 4.64317C18.6881 6.11026 19.5961 7.98137 19.8183 10.0748C19.8691 10.5529 19.8687 11.4062 19.8176 11.8965C19.4769 15.1628 17.2721 18.0446 14.1108 19.3555C13.8817 19.4505 13.6773 19.5283 13.6567 19.5283C13.6248 19.5283 13.6191 19.3757 13.6188 18.5224C13.6185 17.6435 13.6122 17.4868 13.5693 17.28C13.4746 16.8237 13.2918 16.4888 12.9804 16.2008C12.8793 16.1073 12.807 16.0308 12.8196 16.0307C12.9007 16.0302 13.633 15.9114 13.8955 15.8561C16.0096 15.4111 17.1769 14.1545 17.4463 12.0339C17.639 10.5159 17.3733 9.39337 16.6026 8.47032L16.4705 8.31217L16.517 8.17546C16.6261 7.85514 16.6583 7.61714 16.6571 7.14275C16.6561 6.77129 16.6447 6.63061 16.598 6.41306C16.5305 6.09866 16.3904 5.66554 16.3473 5.63769C16.2961 5.60469 15.9779 5.61565 15.7535 5.65817C15.2156 5.76012 14.5549 6.05651 13.8368 6.51803L13.5937 6.67423L13.3103 6.60702C11.8153 6.2525 10.2809 6.25236 8.7949 6.60663L8.5116 6.67415L8.26842 6.5188C7.536 6.05091 6.92884 5.77924 6.34741 5.65928C6.08541 5.60521 5.79192 5.60392 5.73919 5.65662C5.69436 5.7014 5.61579 5.93079 5.54087 6.23553C5.38484 6.8703 5.39414 7.56925 5.5663 8.14919L5.61916 8.32727L5.4894 8.47789C5.08441 8.94802 4.79455 9.55162 4.66348 10.1978C4.61002 10.4613 4.60323 10.5695 4.60412 11.1398C4.60528 11.8586 4.64106 12.1903 4.77665 12.7397C4.97529 13.5445 5.3004 14.141 5.82564 14.6642C6.52921 15.3652 7.45716 15.7679 8.82747 15.9671C9.08047 16.0038 9.29011 16.0366 9.29335 16.0398C9.29656 16.043 9.24357 16.0906 9.17555 16.1456C8.98528 16.2992 8.83607 16.4945 8.71053 16.754C8.5051 17.1788 8.50344 17.1917 8.49247 18.4304C8.4847 19.3083 8.47591 19.5283 8.44856 19.5283C8.39038 19.5283 7.88393 19.3326 7.5345 19.1752C5.21827 18.1313 3.39279 16.147 2.60349 13.8149C2.28349 12.8695 2.14234 12.0024 2.14234 10.982C2.14234 8.92385 2.79544 7.06671 4.09662 5.42482C4.37284 5.07626 5.07862 4.37389 5.44547 4.08245C6.79077 3.01367 8.33189 2.37249 9.99955 2.18778C10.63 2.11796 11.0281 2.10789 11.5922 2.1475Z"/>
</mask>
<path fill-rule="evenodd" clip-rule="evenodd" d="M10.1443 0.517733C9.08507 0.610112 8.10434 0.839073 7.14417 1.21819C4.23435 2.36707 1.99569 4.73273 1.01756 7.6924C0.650627 8.8027 0.500316 9.7581 0.5 10.982C0.499685 12.2075 0.65605 13.1826 1.03557 14.3216C1.5561 15.8839 2.39292 17.229 3.58864 18.4257C4.4834 19.3211 5.3347 19.9272 6.46808 20.4756C7.57933 21.0133 8.69498 21.3293 9.94506 21.4604C10.4444 21.5128 11.5584 21.5133 12.0486 21.4613C14.2613 21.2268 16.2629 20.3551 17.91 18.9088C19.7089 17.3291 20.9154 15.1997 21.3432 12.849C21.4644 12.1834 21.5 11.7595 21.5 10.982C21.5 10.2306 21.4666 9.81166 21.3555 9.16856C20.9609 6.88363 19.7611 4.72155 18.0332 3.18136C16.3783 1.70617 14.4259 0.823532 12.2239 0.5551C11.8046 0.50398 10.5588 0.481602 10.1443 0.517733ZM11.5922 2.1475C13.7212 2.29699 15.6659 3.16513 17.1826 4.64317C18.6881 6.11026 19.5961 7.98137 19.8183 10.0748C19.8691 10.5529 19.8687 11.4062 19.8176 11.8965C19.4769 15.1628 17.2721 18.0446 14.1108 19.3555C13.8817 19.4505 13.6773 19.5283 13.6567 19.5283C13.6248 19.5283 13.6191 19.3757 13.6188 18.5224C13.6185 17.6435 13.6122 17.4868 13.5693 17.28C13.4746 16.8237 13.2918 16.4888 12.9804 16.2008C12.8793 16.1073 12.807 16.0308 12.8196 16.0307C12.9007 16.0302 13.633 15.9114 13.8955 15.8561C16.0096 15.4111 17.1769 14.1545 17.4463 12.0339C17.639 10.5159 17.3733 9.39337 16.6026 8.47032L16.4705 8.31217L16.517 8.17546C16.6261 7.85514 16.6583 7.61714 16.6571 7.14275C16.6561 6.77129 16.6447 6.63061 16.598 6.41306C16.5305 6.09866 16.3904 5.66554 16.3473 5.63769C16.2961 5.60469 15.9779 5.61565 15.7535 5.65817C15.2156 5.76012 14.5549 6.05651 13.8368 6.51803L13.5937 6.67423L13.3103 6.60702C11.8153 6.2525 10.2809 6.25236 8.7949 6.60663L8.5116 6.67415L8.26842 6.5188C7.536 6.05091 6.92884 5.77924 6.34741 5.65928C6.08541 5.60521 5.79192 5.60392 5.73919 5.65662C5.69436 5.7014 5.61579 5.93079 5.54087 6.23553C5.38484 6.8703 5.39414 7.56925 5.5663 8.14919L5.61916 8.32727L5.4894 8.47789C5.08441 8.94802 4.79455 9.55162 4.66348 10.1978C4.61002 10.4613 4.60323 10.5695 4.60412 11.1398C4.60528 11.8586 4.64106 12.1903 4.77665 12.7397C4.97529 13.5445 5.3004 14.141 5.82564 14.6642C6.52921 15.3652 7.45716 15.7679 8.82747 15.9671C9.08047 16.0038 9.29011 16.0366 9.29335 16.0398C9.29656 16.043 9.24357 16.0906 9.17555 16.1456C8.98528 16.2992 8.83607 16.4945 8.71053 16.754C8.5051 17.1788 8.50344 17.1917 8.49247 18.4304C8.4847 19.3083 8.47591 19.5283 8.44856 19.5283C8.39038 19.5283 7.88393 19.3326 7.5345 19.1752C5.21827 18.1313 3.39279 16.147 2.60349 13.8149C2.28349 12.8695 2.14234 12.0024 2.14234 10.982C2.14234 8.92385 2.79544 7.06671 4.09662 5.42482C4.37284 5.07626 5.07862 4.37389 5.44547 4.08245C6.79077 3.01367 8.33189 2.37249 9.99955 2.18778C10.63 2.11796 11.0281 2.10789 11.5922 2.1475Z" fill="white"/>
<path d="M10.1443 0.517733L10.1096 0.119244L10.1096 0.119246L10.1443 0.517733ZM7.14417 1.21819L7.29106 1.59024L7.29107 1.59024L7.14417 1.21819ZM1.01756 7.6924L0.637763 7.56688L0.637763 7.56688L1.01756 7.6924ZM0.5 10.982L0.1 10.9819L0.1 10.9819L0.5 10.982ZM1.03557 14.3216L0.656076 14.4481L0.656077 14.4481L1.03557 14.3216ZM3.58864 18.4257L3.30569 18.7084L3.30569 18.7084L3.58864 18.4257ZM6.46808 20.4756L6.64231 20.1155L6.64231 20.1155L6.46808 20.4756ZM9.94506 21.4604L9.90333 21.8582L9.90333 21.8582L9.94506 21.4604ZM12.0486 21.4613L12.0908 21.8591L12.0908 21.8591L12.0486 21.4613ZM17.91 18.9088L17.646 18.6082L17.646 18.6082L17.91 18.9088ZM21.3432 12.849L20.9497 12.7774L20.9497 12.7774L21.3432 12.849ZM21.3555 9.16856L20.9614 9.23665L20.9614 9.23665L21.3555 9.16856ZM18.0332 3.18136L18.2994 2.88276L18.2994 2.88276L18.0332 3.18136ZM12.2239 0.5551L12.2723 0.15804L12.2723 0.158039L12.2239 0.5551ZM11.5922 2.1475L11.6202 1.74848L11.6202 1.74848L11.5922 2.1475ZM17.1826 4.64317L17.4618 4.35669L17.4618 4.35669L17.1826 4.64317ZM19.8183 10.0748L20.2161 10.0326L20.2161 10.0326L19.8183 10.0748ZM19.8176 11.8965L19.4197 11.855L19.4197 11.855L19.8176 11.8965ZM14.1108 19.3555L13.9575 18.986L13.9575 18.9861L14.1108 19.3555ZM13.6188 18.5224L14.0188 18.5223L14.0188 18.5223L13.6188 18.5224ZM13.5693 17.28L13.9609 17.1986L13.9609 17.1986L13.5693 17.28ZM12.9804 16.2008L13.252 15.9071L13.252 15.9071L12.9804 16.2008ZM12.8196 16.0307L12.8221 16.4307L12.8222 16.4307L12.8196 16.0307ZM13.8955 15.8561L13.9779 16.2476L13.9779 16.2476L13.8955 15.8561ZM17.4463 12.0339L17.8431 12.0842L17.8431 12.0842L17.4463 12.0339ZM16.6026 8.47032L16.9096 8.21395L16.9096 8.21392L16.6026 8.47032ZM16.4705 8.31217L16.0918 8.18333L16.0195 8.39608L16.1635 8.56857L16.4705 8.31217ZM16.517 8.17546L16.1384 8.04659L16.1384 8.04662L16.517 8.17546ZM16.6571 7.14275L16.2571 7.1438L16.2571 7.14382L16.6571 7.14275ZM16.598 6.41306L16.2069 6.49705L16.2069 6.49706L16.598 6.41306ZM16.3473 5.63769L16.5642 5.30161L16.5641 5.30158L16.3473 5.63769ZM15.7535 5.65817L15.679 5.26517L15.679 5.26517L15.7535 5.65817ZM13.8368 6.51803L14.053 6.85454L14.053 6.85453L13.8368 6.51803ZM13.5937 6.67423L13.5014 7.06344L13.6669 7.10268L13.81 7.01074L13.5937 6.67423ZM13.3103 6.60702L13.218 6.99623L13.218 6.99623L13.3103 6.60702ZM8.7949 6.60663L8.88765 6.99572L8.88766 6.99572L8.7949 6.60663ZM8.5116 6.67415L8.29626 7.01124L8.43927 7.1026L8.60435 7.06325L8.5116 6.67415ZM8.26842 6.5188L8.48377 6.18171L8.48376 6.18171L8.26842 6.5188ZM6.34741 5.65928L6.26658 6.05102L6.26659 6.05103L6.34741 5.65928ZM5.73919 5.65662L6.02189 5.93962L6.02196 5.93954L5.73919 5.65662ZM5.54087 6.23553L5.15243 6.14004L5.15243 6.14006L5.54087 6.23553ZM5.5663 8.14919L5.94976 8.03537L5.94976 8.03536L5.5663 8.14919ZM5.61916 8.32727L5.92222 8.58833L6.06477 8.42284L6.00262 8.21344L5.61916 8.32727ZM5.4894 8.47789L5.79246 8.73896L5.79246 8.73896L5.4894 8.47789ZM4.66348 10.1978L5.0555 10.2773L5.0555 10.2773L4.66348 10.1978ZM4.60412 11.1398L4.20412 11.1404L4.20412 11.1404L4.60412 11.1398ZM4.77665 12.7397L4.38831 12.8356L4.38831 12.8356L4.77665 12.7397ZM5.82564 14.6642L6.10795 14.3809L6.10795 14.3809L5.82564 14.6642ZM8.82747 15.9671L8.76993 16.3629L8.76995 16.3629L8.82747 15.9671ZM9.29335 16.0398L9.5772 15.758L9.57604 15.7568L9.29335 16.0398ZM9.17555 16.1456L9.42685 16.4568L9.42686 16.4568L9.17555 16.1456ZM8.71053 16.754L8.35044 16.5799L8.35043 16.5799L8.71053 16.754ZM8.49247 18.4304L8.09248 18.4269L8.09248 18.4269L8.49247 18.4304ZM7.5345 19.1752L7.37015 19.5399L7.37017 19.5399L7.5345 19.1752ZM2.60349 13.8149L2.2246 13.9432L2.2246 13.9432L2.60349 13.8149ZM4.09662 5.42482L4.41011 5.67326L4.41011 5.67326L4.09662 5.42482ZM5.44547 4.08245L5.69428 4.39565L5.69429 4.39564L5.44547 4.08245ZM9.99955 2.18778L9.95552 1.79021L9.95552 1.79021L9.99955 2.18778ZM10.1096 0.119246C9.01303 0.214877 7.99443 0.452421 6.99727 0.846137L7.29107 1.59024C8.21426 1.22573 9.15712 1.00535 10.1791 0.916221L10.1096 0.119246ZM6.99727 0.846136C3.97756 2.0384 1.65328 4.49409 0.637763 7.56688L1.39736 7.81792C2.3381 4.97137 4.49113 2.69573 7.29106 1.59024L6.99727 0.846136ZM0.637763 7.56688C0.256844 8.71951 0.100327 9.71739 0.1 10.9819L0.9 10.9821C0.900306 9.79881 1.04441 8.8859 1.39736 7.81791L0.637763 7.56688ZM0.1 10.9819C0.0996737 12.2495 0.262681 13.2674 0.656076 14.4481L1.41506 14.1952C1.04942 13.0978 0.899695 12.1655 0.9 10.9821L0.1 10.9819ZM0.656077 14.4481C1.19678 16.0708 2.06734 17.4691 3.30569 18.7084L3.87159 18.1429C2.7185 16.989 1.91542 15.6969 1.41505 14.1952L0.656077 14.4481ZM3.30569 18.7084C4.23193 19.6354 5.11994 20.2676 6.29386 20.8356L6.64231 20.1155C5.54946 19.5867 4.73487 19.0069 3.87159 18.1429L3.30569 18.7084ZM6.29386 20.8356C7.44752 21.3939 8.60808 21.7224 9.90333 21.8582L9.98679 21.0626C8.78187 20.9362 7.71114 20.6327 6.64231 20.1155L6.29386 20.8356ZM9.90333 21.8582C10.4301 21.9135 11.5722 21.9141 12.0908 21.8591L12.0065 21.0635C11.5447 21.1125 10.4588 21.1121 9.98679 21.0626L9.90333 21.8582ZM12.0908 21.8591C14.3844 21.616 16.4637 20.7111 18.1739 19.2093L17.646 18.6082C16.0621 19.9991 14.1383 20.8376 12.0065 21.0635L12.0908 21.8591ZM18.1739 19.2093C20.0405 17.5703 21.2927 15.3602 21.7368 12.9207L20.9497 12.7774C20.538 15.0391 19.3773 17.0879 17.646 18.6082L18.1739 19.2093ZM21.7368 12.9207C21.8628 12.2282 21.9 11.78 21.9 10.982H21.1C21.1 11.7389 21.066 12.1386 20.9497 12.7774L21.7368 12.9207ZM21.9 10.982C21.9 10.2111 21.8652 9.76913 21.7497 9.10048L20.9614 9.23665C21.068 9.8542 21.1 10.2501 21.1 10.982H21.9ZM21.7497 9.10048C21.3397 6.72662 20.0949 4.48324 18.2994 2.88276L17.7671 3.47995C19.4273 4.95987 20.5821 7.04064 20.9614 9.23665L21.7497 9.10048ZM18.2994 2.88276C16.5836 1.35329 14.5552 0.436331 12.2723 0.15804L12.1755 0.952161C14.2966 1.21073 16.173 2.05904 17.7671 3.47995L18.2994 2.88276ZM12.2723 0.158039C12.0399 0.1297 11.6048 0.111225 11.1895 0.103762C10.7744 0.0963045 10.3402 0.0991449 10.1096 0.119244L10.1791 0.916222C10.363 0.900191 10.7589 0.896155 11.1751 0.903633C11.5911 0.911107 11.9887 0.929381 12.1755 0.952161L12.2723 0.158039ZM11.5641 2.54651C13.5996 2.68944 15.4551 3.51821 16.9035 4.92964L17.4618 4.35669C15.8767 2.81206 13.8428 1.90454 11.6202 1.74848L11.5641 2.54651ZM16.9035 4.92964C18.3421 6.33153 19.2081 8.1162 19.4205 10.117L20.2161 10.0326C19.984 7.84654 19.0342 5.88899 17.4618 4.35669L16.9035 4.92964ZM19.4205 10.117C19.4683 10.5666 19.468 11.3918 19.4197 11.855L20.2154 11.938C20.2694 11.4206 20.2699 10.5392 20.2161 10.0326L19.4205 10.117ZM19.4197 11.855C19.0951 14.9679 16.9905 17.7284 13.9575 18.986L14.264 19.725C17.5537 18.3609 19.8588 15.3578 20.2154 11.938L19.4197 11.855ZM13.9575 18.9861C13.8457 19.0324 13.7411 19.0741 13.6633 19.1037C13.624 19.1186 13.5941 19.1295 13.5746 19.1362C13.5644 19.1397 13.5608 19.1407 13.5619 19.1404C13.5621 19.1403 13.5677 19.1387 13.5765 19.1368C13.577 19.1367 13.6113 19.1283 13.6567 19.1283V19.9283C13.7046 19.9283 13.7429 19.9193 13.7488 19.918C13.763 19.9149 13.7753 19.9115 13.7836 19.9091C13.8006 19.9042 13.8181 19.8984 13.8336 19.8931C13.8654 19.8822 13.9048 19.8678 13.9478 19.8514C14.0346 19.8184 14.1467 19.7737 14.264 19.725L13.9575 18.9861ZM13.6567 19.1283C13.8566 19.1283 13.9627 19.2659 13.9965 19.3275C14.0129 19.3574 14.0211 19.3823 14.0247 19.3944C14.0286 19.4075 14.0304 19.4168 14.0309 19.4196C14.0315 19.423 14.0283 19.4029 14.0256 19.3303C14.0205 19.1946 14.0189 18.9516 14.0188 18.5223L13.2188 18.5226C13.2189 18.9466 13.2204 19.2065 13.2262 19.3604C13.2289 19.4326 13.2331 19.504 13.2438 19.5626C13.2483 19.5872 13.2601 19.6485 13.2953 19.7126C13.3355 19.7859 13.4487 19.9283 13.6567 19.9283V19.1283ZM14.0188 18.5223C14.0185 17.6599 14.0142 17.455 13.9609 17.1986L13.1776 17.3613C13.2103 17.5185 13.2185 17.627 13.2188 18.5226L14.0188 18.5223ZM13.9609 17.1986C13.851 16.6692 13.6306 16.2573 13.252 15.9071L12.7088 16.4945C12.953 16.7204 13.0981 16.9781 13.1776 17.3613L13.9609 17.1986ZM13.252 15.9071C13.2054 15.8641 13.169 15.8281 13.148 15.806C13.1356 15.7928 13.1366 15.7928 13.1434 15.8018C13.1457 15.8048 13.1507 15.8115 13.1568 15.821C13.1615 15.8282 13.1746 15.8488 13.187 15.878C13.1933 15.8928 13.2033 15.9189 13.2102 15.953C13.2166 15.9842 13.2256 16.0468 13.2076 16.1232C13.187 16.2108 13.1331 16.3034 13.0372 16.366C12.9515 16.4219 12.8678 16.4305 12.8221 16.4307L12.8171 15.6308C12.7707 15.631 12.6862 15.6398 12.6001 15.696C12.5038 15.7588 12.4496 15.8519 12.4288 15.9401C12.3971 16.0752 12.4465 16.1811 12.4505 16.1905C12.4728 16.2429 12.5025 16.2806 12.507 16.2866C12.527 16.3129 12.5501 16.3379 12.5667 16.3556C12.604 16.395 12.6543 16.4441 12.7088 16.4945L13.252 15.9071ZM12.8222 16.4307C12.8768 16.4304 12.9717 16.417 13.0418 16.407C13.1292 16.3944 13.2391 16.3774 13.3536 16.3588C13.5802 16.322 13.8368 16.2773 13.9779 16.2476L13.8132 15.4647C13.6917 15.4903 13.4509 15.5325 13.2254 15.5691C13.1139 15.5872 13.0091 15.6035 12.9282 15.6151C12.83 15.6292 12.803 15.6308 12.817 15.6308L12.8222 16.4307ZM13.9779 16.2476C15.0952 16.0124 15.997 15.5548 16.6557 14.8456C17.3149 14.1361 17.7004 13.2074 17.8431 12.0842L17.0495 11.9835C16.9228 12.981 16.59 13.7409 16.0696 14.3011C15.5489 14.8617 14.8099 15.2549 13.8131 15.4647L13.9779 16.2476ZM17.8431 12.0842C18.0458 10.4879 17.7699 9.24425 16.9096 8.21395L16.2956 8.72668C16.9767 9.54249 17.2323 10.5438 17.0495 11.9835L17.8431 12.0842ZM16.9096 8.21392L16.7775 8.05578L16.1635 8.56857L16.2956 8.72672L16.9096 8.21392ZM16.8492 8.44102L16.8957 8.3043L16.1384 8.04662L16.0918 8.18333L16.8492 8.44102ZM16.8957 8.30433C17.0234 7.92909 17.0584 7.64391 17.0571 7.14169L16.2571 7.14382C16.2583 7.59036 16.2287 7.7812 16.1384 8.04659L16.8957 8.30433ZM17.0571 7.1417C17.0561 6.75826 17.0442 6.58595 16.9891 6.32906L16.2069 6.49706C16.2452 6.67527 16.2561 6.78433 16.2571 7.1438L17.0571 7.1417ZM16.9891 6.32907C16.952 6.15637 16.8963 5.95629 16.8441 5.79485C16.8181 5.71441 16.7909 5.63725 16.7653 5.57474C16.7529 5.54436 16.7377 5.50978 16.7204 5.47742C16.7119 5.46152 16.6991 5.43898 16.682 5.41509C16.6708 5.39938 16.6321 5.34544 16.5642 5.30161L16.1304 5.97376C16.0679 5.93342 16.0353 5.88612 16.0309 5.87997C16.0207 5.86564 16.0154 5.85557 16.015 5.8548C16.0138 5.85268 16.0172 5.85896 16.025 5.87801C16.0399 5.91437 16.0601 5.97037 16.0829 6.04098C16.1284 6.18167 16.1765 6.35535 16.2069 6.49705L16.9891 6.32907ZM16.5641 5.30158C16.491 5.25438 16.4177 5.23965 16.3939 5.23495C16.358 5.22786 16.3229 5.22418 16.2935 5.22204C16.2338 5.2177 16.1669 5.2176 16.1016 5.21985C15.971 5.22435 15.8147 5.23946 15.679 5.26517L15.828 6.05118C15.9167 6.03437 16.0317 6.02273 16.1291 6.01937C16.1779 6.01769 16.2141 6.01838 16.2355 6.01993C16.2466 6.02074 16.2465 6.02129 16.2387 6.01975C16.2346 6.01894 16.2238 6.01666 16.2088 6.0117C16.1959 6.00743 16.1658 5.99661 16.1304 5.9738L16.5641 5.30158ZM15.679 5.26517C15.0705 5.38051 14.3603 5.70607 13.6205 6.18154L14.053 6.85453C14.7494 6.40695 15.3607 6.13974 15.828 6.05118L15.679 5.26517ZM13.6205 6.18153L13.3775 6.33773L13.81 7.01074L14.053 6.85454L13.6205 6.18153ZM13.686 6.28503L13.4026 6.21781L13.218 6.99623L13.5014 7.06344L13.686 6.28503ZM13.4026 6.21782C11.8472 5.84895 10.2493 5.84868 8.70214 6.21753L8.88766 6.99572C10.3125 6.65605 11.7835 6.65604 13.218 6.99623L13.4026 6.21782ZM8.70216 6.21753L8.41886 6.28506L8.60435 7.06325L8.88765 6.99572L8.70216 6.21753ZM8.72695 6.33707L8.48377 6.18171L8.05307 6.85588L8.29626 7.01124L8.72695 6.33707ZM8.48376 6.18171C7.72758 5.69864 7.07417 5.4008 6.42824 5.26753L6.26659 6.05103C6.7835 6.15768 7.34442 6.40317 8.05308 6.85588L8.48376 6.18171ZM6.42825 5.26753C6.27204 5.2353 6.10667 5.21853 5.96657 5.21792C5.89734 5.21762 5.82335 5.22117 5.75445 5.23255C5.72018 5.23821 5.67786 5.24729 5.63392 5.26315C5.596 5.27683 5.52281 5.30736 5.45643 5.3737L6.02196 5.93954C5.96876 5.99271 5.91628 6.01175 5.90552 6.01563C5.88875 6.02168 5.88006 6.02264 5.88481 6.02186C5.89395 6.02035 5.91959 6.01772 5.96308 6.01791C6.0484 6.01828 6.16079 6.02919 6.26658 6.05102L6.42825 5.26753ZM5.4565 5.37363C5.38898 5.44108 5.35072 5.52459 5.33585 5.55723C5.31362 5.60601 5.29251 5.66172 5.2729 5.71896C5.23332 5.8345 5.19176 5.98009 5.15243 6.14004L5.9293 6.33103C5.9649 6.18623 6.00008 6.06476 6.02972 5.97823C6.04473 5.93443 6.05636 5.90535 6.06381 5.889C6.06754 5.88081 6.06813 5.88046 6.06532 5.88523C6.06467 5.88632 6.05083 5.9107 6.02189 5.93962L5.4565 5.37363ZM5.15243 6.14006C4.98086 6.83806 4.98885 7.60955 5.18284 8.26302L5.94976 8.03536C5.79943 7.52896 5.78883 6.90254 5.92931 6.33101L5.15243 6.14006ZM5.18283 8.26301L5.23569 8.44109L6.00262 8.21344L5.94976 8.03537L5.18283 8.26301ZM5.3161 8.0662L5.18634 8.21683L5.79246 8.73896L5.92222 8.58833L5.3161 8.0662ZM5.18635 8.21682C4.73383 8.74211 4.41527 9.40931 4.27147 10.1183L5.0555 10.2773C5.17383 9.69393 5.43498 9.15393 5.79246 8.73896L5.18635 8.21682ZM4.27147 10.1183C4.20947 10.4239 4.20322 10.5662 4.20412 11.1404L5.00412 11.1392C5.00323 10.5728 5.01057 10.4988 5.0555 10.2773L4.27147 10.1183ZM4.20412 11.1404C4.20532 11.8832 4.24328 12.248 4.38831 12.8356L5.165 12.6438C5.03883 12.1327 5.00524 11.8341 5.00412 11.1391L4.20412 11.1404ZM4.38831 12.8356C4.60235 13.7027 4.96031 14.3668 5.54333 14.9476L6.10795 14.3809C5.64048 13.9152 5.34823 13.3862 5.165 12.6438L4.38831 12.8356ZM5.54333 14.9476C6.32767 15.729 7.34731 16.1562 8.76993 16.3629L8.885 15.5712C7.56702 15.3797 6.73075 15.0013 6.10795 14.3809L5.54333 14.9476ZM8.76995 16.3629C8.89549 16.3812 9.00971 16.3983 9.09239 16.4112C9.13399 16.4177 9.16629 16.4229 9.18765 16.4266C9.19877 16.4285 9.20443 16.4295 9.20615 16.4298C9.2077 16.4301 9.20361 16.4294 9.19697 16.4278C9.19447 16.4272 9.18461 16.4248 9.17187 16.4208C9.16601 16.4189 9.15215 16.4144 9.13502 16.4071C9.12639 16.4034 9.11181 16.3968 9.09454 16.3869C9.08055 16.3789 9.04636 16.3584 9.01066 16.3228L9.57604 15.7568C9.51686 15.6977 9.4526 15.6728 9.45108 15.6722C9.43365 15.6647 9.41939 15.66 9.41303 15.658C9.39929 15.6537 9.38804 15.6509 9.38376 15.6499C9.37357 15.6475 9.3644 15.6456 9.35941 15.6447C9.34806 15.6424 9.33483 15.6401 9.32189 15.6379C9.29513 15.6334 9.25859 15.6275 9.21575 15.6208C9.12955 15.6073 9.01244 15.5898 8.88498 15.5712L8.76995 16.3629ZM9.00951 16.3216C8.90751 16.2189 8.89068 16.0959 8.89387 16.0228C8.8968 15.9557 8.91606 15.906 8.92491 15.8851C8.94347 15.8412 8.96571 15.8115 8.97073 15.8047C8.98535 15.785 8.9979 15.7723 8.99818 15.772C9.00249 15.7676 9.00233 15.7681 8.99392 15.7757C8.97921 15.7889 8.95458 15.8099 8.92424 15.8344L9.42686 16.4568C9.46454 16.4263 9.50042 16.396 9.52841 16.3709C9.54135 16.3593 9.55808 16.3439 9.57356 16.3279C9.57941 16.3218 9.59611 16.3045 9.61328 16.2813C9.61957 16.2728 9.64269 16.2417 9.6617 16.1968C9.67078 16.1753 9.69016 16.1251 9.69311 16.0577C9.69632 15.9842 9.6794 15.8609 9.5772 15.758L9.00951 16.3216ZM8.92425 15.8344C8.68053 16.0312 8.49712 16.2766 8.35044 16.5799L9.07063 16.9282C9.17503 16.7123 9.29003 16.5672 9.42685 16.4568L8.92425 15.8344ZM8.35043 16.5799C8.24545 16.797 8.16828 16.9558 8.13192 17.2354C8.10049 17.477 8.09784 17.8218 8.09248 18.4269L8.89245 18.434C8.89806 17.8003 8.90173 17.5193 8.92524 17.3386C8.94381 17.1958 8.97018 17.1359 9.07063 16.9282L8.35043 16.5799ZM8.09248 18.4269C8.08859 18.8671 8.08447 19.1352 8.07817 19.2926C8.07492 19.3741 8.07153 19.4118 8.0697 19.4249C8.06822 19.4355 8.07021 19.4123 8.08303 19.3778C8.08891 19.362 8.10736 19.3146 8.15008 19.2649C8.19771 19.2095 8.29803 19.1283 8.44856 19.1283V19.9283C8.6025 19.9283 8.70609 19.8454 8.75687 19.7863C8.80272 19.7329 8.82417 19.68 8.83292 19.6565C8.85149 19.6065 8.85872 19.5592 8.86203 19.5355C8.86978 19.4799 8.87421 19.4078 8.87754 19.3245C8.88442 19.1524 8.88858 18.8715 8.89245 18.434L8.09248 18.4269ZM8.44856 19.1283C8.5061 19.1283 8.54577 19.1431 8.51529 19.1345C8.50501 19.1316 8.48666 19.1259 8.45921 19.1166C8.40519 19.0982 8.33105 19.0709 8.24489 19.0376C8.07281 18.9712 7.86572 18.8857 7.69884 18.8105L7.37017 19.5399C7.55271 19.6221 7.77356 19.7132 7.95661 19.7839C8.04801 19.8192 8.13323 19.8507 8.20145 19.8739C8.23512 19.8854 8.26862 19.8962 8.29853 19.9046C8.30825 19.9073 8.37647 19.9283 8.44856 19.9283V19.1283ZM7.69885 18.8105C5.48019 17.8106 3.73481 15.9098 2.98237 13.6867L2.2246 13.9432C3.05077 16.3841 4.95634 18.452 7.37015 19.5399L7.69885 18.8105ZM2.98237 13.6867C2.67667 12.7835 2.54234 11.9598 2.54234 10.982H1.74234C1.74234 12.045 1.89031 12.9555 2.2246 13.9432L2.98237 13.6867ZM2.54234 10.982C2.54234 9.01578 3.16387 7.24583 4.41011 5.67326L3.78313 5.17638C2.42701 6.88758 1.74234 8.83192 1.74234 10.982H2.54234ZM4.41011 5.67326C4.66633 5.34994 5.35011 4.66907 5.69428 4.39565L5.19666 3.76925C4.80712 4.07872 4.07935 4.80259 3.78312 5.17639L4.41011 5.67326ZM5.69429 4.39564C6.98212 3.37251 8.45264 2.76156 10.0436 2.58535L9.95552 1.79021C8.21113 1.98341 6.59941 2.65482 5.19665 3.76926L5.69429 4.39564ZM10.0436 2.58535C10.653 2.51787 11.0267 2.50879 11.5641 2.54651L11.6202 1.74848C11.0294 1.707 10.6071 1.71806 9.95552 1.79021L10.0436 2.58535Z" fill="white" mask="url(#path-1-outside-1_287_29)"/>
</svg>
