<svg width="24" height="24" viewBox="0 0 24 24" fill="none" xmlns="http://www.w3.org/2000/svg">
<path fill-rule="evenodd" clip-rule="evenodd" d="M2.89185 2.11879C2.78359 2.23887 2.4359 3.39561 2.28656 4.13276C2.09462 5.08007 2.02346 5.74393 2.02683 6.5556C2.03084 7.53236 2.00158 7.63352 1.49818 8.38257C0.729842 9.52587 0.401627 10.3834 0.254503 11.6318C0.0404614 13.4481 0.380998 15.6802 1.124 17.3315C2.11848 19.5417 4.11227 21.0656 6.79296 21.6645C7.96202 21.9257 8.12917 21.936 11.5412 21.9568C14.1767 21.9729 14.8385 21.9639 15.5089 21.9029C18.8452 21.5989 21.1826 20.2991 22.522 18.0027C23.3135 16.6458 23.7123 15.1038 23.796 13.0774C23.8703 11.2786 23.5279 9.95363 22.6321 8.57312C22.0705 7.70772 22.0306 7.57957 21.9687 6.44023C21.9198 5.53981 21.8989 5.37062 21.6871 4.15583C21.5285 3.24669 21.2844 2.42684 21.1107 2.22041C20.8891 1.95708 20.515 1.98154 19.5924 2.31963C18.5598 2.69801 17.3169 3.30368 16.1249 4.00921C15.8169 4.19155 15.4905 4.37181 15.3996 4.40979C15.1894 4.49761 14.732 4.49683 14.1699 4.40771C13.0336 4.22755 10.9948 4.24028 9.58745 4.43633C9.19578 4.49088 8.84163 4.51764 8.75676 4.49904C8.6754 4.48128 8.21427 4.22819 7.73201 3.93676C6.46433 3.17059 5.3914 2.66234 4.1899 2.25881C3.48395 2.02174 3.02412 1.97213 2.89185 2.11879ZM17.2924 11.6985C18.7854 11.961 19.6755 12.5407 20.1848 13.5819C20.5283 14.2843 20.605 14.6768 20.6065 15.7393C20.6078 16.6847 20.5634 17.0001 20.352 17.55C19.9681 18.548 19.1923 19.4278 18.2928 19.8852C17.5901 20.2424 16.3571 20.5454 14.839 20.7337C14.5264 20.7725 13.6184 20.791 12.0239 20.791C10.0362 20.7911 9.56627 20.7781 9.00112 20.708C6.67292 20.4191 5.3998 19.9304 4.53916 18.9955C3.89117 18.2916 3.50264 17.3901 3.36535 16.2721C3.27148 15.5076 3.41869 14.4628 3.70985 13.8268C3.97097 13.2565 4.43269 12.685 4.93203 12.3141C5.80864 11.663 6.58159 11.5842 11.1788 11.6778C13.9065 11.7333 14.2903 11.7321 15.0092 11.6658C15.8935 11.5843 16.7091 11.596 17.2924 11.6985ZM7.38852 13.7576C6.3101 14.2469 5.8672 15.9128 6.47868 17.1798C6.66822 17.5725 7.00751 17.9402 7.32663 18.0987C7.50375 18.1867 7.62037 18.2083 7.91661 18.2082C8.23896 18.208 8.31709 18.1907 8.53219 18.0716C9.00384 17.8108 9.36681 17.2994 9.53152 16.6636C9.62377 16.3076 9.63558 15.685 9.55741 15.3009C9.42593 14.655 8.96974 14.0162 8.47169 13.7806C8.15035 13.6286 7.69435 13.6189 7.38852 13.7576ZM15.6031 13.7576C15.1165 13.9784 14.7743 14.3945 14.555 15.032C14.449 15.3401 14.4304 15.4713 14.4287 15.9239C14.4272 16.3076 14.4498 16.5314 14.51 16.7316C14.949 18.1897 16.226 18.6833 17.1471 17.7509C17.602 17.2905 17.8241 16.6987 17.8241 15.947C17.8241 14.9678 17.3685 14.1033 16.6811 13.7781C16.3651 13.6287 15.9067 13.6199 15.6031 13.7576Z" fill="white"/>
</svg>
