<svg width="194" height="186" viewBox="0 0 194 186" fill="none" xmlns="http://www.w3.org/2000/svg">
<path d="M189.83 73.7301L189.56 73.0401L163.42 4.82008C162.889 3.483 161.947 2.34875 160.73 1.58008C159.513 0.824462 158.093 0.460533 156.663 0.537429C155.232 0.614325 153.86 1.12834 152.73 2.01008C151.614 2.91713 150.804 4.14621 150.41 5.53007L132.76 59.5301H61.2904L43.6404 5.53007C43.2576 4.13868 42.4458 2.90343 41.3204 2.00008C40.1912 1.11834 38.8186 0.604323 37.388 0.527427C35.9574 0.450531 34.5376 0.81446 33.3204 1.57008C32.1067 2.34185 31.1658 3.47511 30.6304 4.81007L4.4404 73.0001L4.18039 73.6901C0.417421 83.5221 -0.0470562 94.3111 2.85699 104.43C5.76104 114.549 11.8762 123.45 20.2804 129.79L20.3704 129.86L20.6104 130.03L60.4304 159.85L80.1304 174.76L92.1304 183.82C93.5341 184.886 95.248 185.463 97.0104 185.463C98.7728 185.463 100.487 184.886 101.89 183.82L113.89 174.76L133.59 159.85L173.65 129.85L173.75 129.77C182.136 123.429 188.237 114.537 191.136 104.432C194.036 94.3263 193.578 83.5528 189.83 73.7301V73.7301Z" fill="#E24329"/>
<path d="M189.83 73.73L189.56 73.04C176.823 75.6545 164.82 81.0496 154.41 88.84L97 132.25C116.55 147.04 133.57 159.89 133.57 159.89L173.63 129.89L173.73 129.81C182.127 123.469 188.238 114.572 191.141 104.458C194.045 94.3435 193.585 83.5599 189.83 73.73Z" fill="#FC6D26"/>
<path d="M60.4307 159.89L80.1307 174.8L92.1307 183.86C93.5343 184.926 95.2483 185.503 97.0107 185.503C98.7731 185.503 100.487 184.926 101.891 183.86L113.891 174.8L133.591 159.89C133.591 159.89 116.551 147 97.0007 132.25C77.4507 147 60.4307 159.89 60.4307 159.89Z" fill="#FCA326"/>
<path d="M39.5804 88.84C29.1783 81.0335 17.1784 75.6243 4.4404 73L4.18039 73.69C0.417421 83.5221 -0.0470562 94.311 2.85699 104.43C5.76104 114.549 11.8762 123.45 20.2804 129.79L20.3704 129.86L20.6104 130.03L60.4304 159.85C60.4304 159.85 77.4304 147 97.0004 132.21L39.5804 88.84Z" fill="#FC6D26"/>
</svg>
