<svg width="800" height="598" viewBox="0 0 600 448" fill="none" xmlns="http://www.w3.org/2000/svg">
<path fill-rule="evenodd" clip-rule="evenodd" d="M137.5 78.126C92.377 82.418 52.261 103.847 27.442 136.915C8.47799 162.184 -1.36401 196.554 0.347994 231.535C2.20299 269.446 15.797 300.867 41.457 326.555C62.211 347.331 86.951 360.504 117.66 367.132C130.036 369.803 160.698 370.813 176.155 369.06C202.394 366.083 230.129 356.972 249.617 344.928L253 342.837V278.918V215H198H143V235V255H177H211V287.536V320.071L206.552 321.978C201.361 324.203 191.021 327.29 182.5 329.159C178.554 330.025 169.312 330.461 155.5 330.432C136.107 330.392 133.767 330.19 124.926 327.797C104.679 322.315 90.116 314.194 76.95 301.042C51.833 275.954 41.62 239.628 48.607 200.225C52.459 178.497 61.913 160.235 76.798 145.767C88.396 134.495 101.611 126.824 117.5 122.14C145.663 113.839 185.907 115.765 220.302 127.059C226.903 129.227 232.461 131 232.652 131C232.843 131 233 121.824 233 110.609V90.217L228.919 88.584C226.675 87.686 220.612 85.853 215.446 84.511C190.92 78.139 162.148 75.782 137.5 78.126ZM268 86.286C268 86.443 287.277 148.655 310.837 224.536L353.674 362.5L359.587 362.79L365.5 363.079L398.967 287.04C417.374 245.218 432.674 211.007 432.967 211.016C433.26 211.025 449.025 245.21 468 286.983L502.5 362.934L508.5 362.957L514.5 362.979L556.89 225.74C580.205 150.258 599.48 87.938 599.724 87.25C600.069 86.276 595.535 86 579.159 86H558.15L556.755 90.75C540.019 147.727 503.326 267.726 502.8 267.2C502.409 266.809 487.953 235.442 470.674 197.495L439.257 128.5L434.816 128.203L430.375 127.906L399.057 197.703C381.833 236.091 367.445 267.83 367.086 268.234C366.726 268.638 355.076 230.838 341.196 184.234C327.317 137.63 315.048 96.463 313.933 92.75L311.906 86H289.953C277.879 86 268 86.129 268 86.286Z" fill="white"/>
<rect width="600" height="38" fill="#AC9E6E"/>
<rect y="410" width="600" height="38" fill="#AC9E6E"/>
</svg>
