<svg width="383" height="434" viewBox="0 0 383 434" fill="none" xmlns="http://www.w3.org/2000/svg">
<path d="M383 0L348.108 390.555L191.266 434L34.856 390.615L0 0H383Z" fill="#E44D26"/>
<path d="M191.5 400.792L318.236 365.686L348.052 31.9377H191.5V400.792Z" fill="#F16529"/>
<path d="M123.671 127.754H191.5V79.8467H71.2703L72.4173 92.6992L84.2026 224.719H191.5V176.812H128.053L123.671 127.754V127.754ZM134.477 248.674H86.345L93.0618 323.896L191.279 351.137L191.5 351.077V301.233L191.29 301.288L137.891 286.882L134.477 248.674V248.674Z" fill="#EBEBEB"/>
<path d="M191.335 224.719H250.377L244.81 286.852L191.333 301.273V351.114L289.629 323.896L290.349 315.801L301.618 189.676L302.788 176.812H191.335V224.719ZM191.335 127.637V127.754H307.151L308.111 116.987L310.297 92.6992L311.443 79.8467H191.335V127.639V127.637Z" fill="white"/>
</svg>
