<svg width="240" height="234" viewBox="0 0 240 234" fill="none" xmlns="http://www.w3.org/2000/svg">
<g clip-path="url(#clip0_222_16)">
<path d="M42.5 1.88608e-05H197.5C203.083 -0.00524284 208.612 1.09046 213.77 3.22442C218.929 5.35838 223.616 8.48871 227.564 12.4362C231.511 16.3838 234.642 21.071 236.776 26.2297C238.91 31.3885 240.005 36.9174 240 42.5V191.5C240.005 197.083 238.91 202.612 236.776 207.77C234.642 212.929 231.511 217.616 227.564 221.564C223.616 225.511 218.929 228.642 213.77 230.776C208.612 232.91 203.083 234.005 197.5 234H42.5C36.9174 234.005 31.3885 232.91 26.2297 230.776C21.071 228.642 16.3838 225.511 12.4362 221.564C8.48871 217.616 5.35838 212.929 3.22442 207.77C1.09046 202.612 -0.00524284 197.083 1.88608e-05 191.5V42.5C-0.00524284 36.9174 1.09046 31.3885 3.22442 26.2297C5.35838 21.071 8.48871 16.3838 12.4362 12.4362C16.3838 8.48871 21.071 5.35838 26.2297 3.22442C31.3885 1.09046 36.9174 -0.00524284 42.5 1.88608e-05V1.88608e-05Z" fill="#330000"/>
<path d="M119.3 147.748H82.1004L74.5004 171.248C74.4154 171.676 74.1734 172.057 73.8219 172.317C73.4703 172.576 73.0346 172.694 72.6004 172.648H53.8004C52.7004 172.648 52.4004 172.048 52.7004 170.848L84.9004 78.148C85.2004 77.148 85.5004 76.048 85.9004 74.848C86.3028 72.7049 86.5037 70.5287 86.5004 68.348C86.4704 68.0976 86.5362 67.8451 86.6846 67.6411C86.8329 67.4371 87.0529 67.2967 87.3004 67.248H113.2C114 67.248 114.4 67.548 114.5 68.048L151 171.048C151.3 172.148 151 172.648 150 172.648H129.1C128.747 172.682 128.393 172.59 128.1 172.389C127.808 172.188 127.595 171.89 127.5 171.548L119.3 147.748ZM87.9004 127.448H113.3C112.7 125.348 111.9 122.848 111 120.248C110.1 117.648 109.2 114.648 108.3 111.648C107.4 108.648 106.4 105.548 105.4 102.448C104.4 99.348 103.5 96.448 102.7 93.548C101.9 90.648 101.2 88.148 100.5 85.748H100.3C99.4017 90.1065 98.2666 94.4128 96.9004 98.648C95.4004 103.448 93.9004 108.448 92.3004 113.448C90.9004 118.548 89.4004 123.248 87.9004 127.448V127.448Z" fill="#FF9A00"/>
<path d="M172.801 84.348C171.159 84.3839 169.527 84.0929 167.999 83.492C166.471 82.8912 165.078 81.9924 163.901 80.848C161.61 78.3429 160.389 75.0409 160.501 71.648C160.442 69.9948 160.732 68.3477 161.352 66.8142C161.972 65.2807 162.909 63.8952 164.101 62.748C166.504 60.4761 169.693 59.222 173.001 59.248C176.901 59.248 179.901 60.448 182.101 62.748C184.316 65.1727 185.5 68.3651 185.401 71.648C185.462 73.3375 185.183 75.0222 184.582 76.6023C183.981 78.1825 183.069 79.6262 181.901 80.848C180.722 82.0482 179.3 82.9817 177.73 83.5854C176.161 84.1892 174.48 84.4492 172.801 84.348V84.348ZM161.601 171.148V94.148C161.601 93.148 162.001 92.748 162.901 92.748H182.701C183.601 92.748 184.001 93.248 184.001 94.148V171.148C184.001 172.248 183.601 172.748 182.701 172.748H163.101C162.891 172.765 162.679 172.735 162.482 172.659C162.286 172.583 162.108 172.464 161.964 172.31C161.82 172.156 161.712 171.972 161.649 171.771C161.587 171.569 161.57 171.357 161.601 171.148V171.148Z" fill="#FF9A00"/>
</g>
<defs>
<clipPath id="clip0_222_16">
<rect width="240" height="234" fill="white"/>
</clipPath>
</defs>
</svg>
