<svg width="20" height="21" viewBox="0 0 20 21" fill="none" xmlns="http://www.w3.org/2000/svg">
<path fill-rule="evenodd" clip-rule="evenodd" d="M0 6.22382C0 3.26975 2.39475 0.875 5.34882 0.875H14.6511C17.6052 0.875 19.9999 3.26975 19.9999 6.22382V15.5261C19.9999 15.6413 19.9963 15.7556 19.9891 15.8689C20.0113 15.9937 19.9998 16.1244 19.9519 16.2461C19.6003 18.8597 17.361 20.8749 14.6511 20.8749H5.34882C2.39475 20.8749 0 18.4802 0 15.5261V6.22382ZM18.6046 14.6355V6.22382C18.6046 4.04038 16.8346 2.27034 14.6511 2.27034H5.34882C3.16538 2.27034 1.39535 4.04038 1.39535 6.22382V13.4939L5.12284 10.3877C6.06534 9.60227 7.45122 9.66513 8.31873 10.5326L12.9598 15.1737C13.1233 15.3372 13.3883 15.3372 13.5518 15.1737L14.5501 14.1753C15.3701 13.3554 16.6626 13.2484 17.6062 13.9224L18.6046 14.6355ZM1.39535 15.2539C1.47132 15.227 1.5439 15.1865 1.60943 15.1319L6.01612 11.4596C6.4042 11.1362 6.97486 11.1621 7.33207 11.5193L11.9731 16.1604C12.6815 16.8687 13.83 16.8687 14.5384 16.1604L15.5368 15.162C15.8744 14.8244 16.4067 14.7803 16.7952 15.0578L18.5296 16.2967C18.1711 18.1113 16.5709 19.4796 14.6511 19.4796H5.34882C3.16538 19.4796 1.39535 17.7096 1.39535 15.5261V15.2539ZM10.9302 7.15405C10.9302 5.74123 12.0755 4.59592 13.4883 4.59592C14.9012 4.59592 16.0465 5.74123 16.0465 7.15405C16.0465 8.56687 14.9012 9.71218 13.4883 9.71218C12.0755 9.71218 10.9302 8.56687 10.9302 7.15405ZM13.4883 5.99126C12.8461 5.99126 12.3255 6.51186 12.3255 7.15405C12.3255 7.79624 12.8461 8.31684 13.4883 8.31684C14.1305 8.31684 14.6511 7.79624 14.6511 7.15405C14.6511 6.51186 14.1305 5.99126 13.4883 5.99126Z" fill="white"/>
</svg>
