<svg width="700" height="700" viewBox="0 0 700 700" fill="none" xmlns="http://www.w3.org/2000/svg">
<path d="M506.983 87.5208C464.009 45.0154 407.029 22.5964 346.781 23.0648C287.23 23.9979 228.847 50.8537 186.578 97.0969C144.308 143.333 122.592 204.051 127.028 263.598C131.933 328.517 165.091 387.839 217.87 426.603C237.955 441.313 250.095 464.437 250.095 488.489V504.366C250.095 517.21 260.604 527.719 273.448 527.719H426.644C439.488 527.719 449.997 517.21 449.997 504.366V488.489C449.997 464.203 461.439 441.547 480.826 427.536C538.974 385.5 573.541 317.776 573.541 246.315C573.541 186.3 549.953 129.79 506.984 87.5141L506.983 87.5208ZM453.5 389.937C424.074 411.19 405.861 444.817 403.526 481.249H296.571C294.236 445.287 275.554 411.19 245.664 389.239C203.864 358.645 177.705 311.704 173.739 260.327C170.236 213.621 187.516 165.512 221.143 128.852C254.771 92.1847 300.779 70.7038 347.485 69.9992C394.889 69.3007 440.2 87.2792 474.062 120.906C507.924 154.299 526.606 199.139 526.606 246.778C526.836 303.061 499.276 356.773 453.503 389.94L453.5 389.937ZM422.912 580.725C422.912 593.57 412.403 604.078 399.559 604.078H300.778C287.933 604.078 277.424 593.57 277.424 580.725C277.424 567.881 287.933 557.372 300.778 557.372H399.559C412.403 557.372 422.912 567.881 422.912 580.725ZM397.453 653.59C397.453 666.434 386.944 676.943 374.1 676.943H325.756C312.912 676.943 302.403 666.434 302.403 653.59C302.403 640.746 312.912 630.237 325.756 630.237H374.1C387.179 630.237 397.453 640.746 397.453 653.59ZM490.865 218.047C490.865 230.892 480.356 241.166 467.512 241.166H467.278C454.433 241.166 443.925 230.657 444.159 217.578C444.159 206.37 440.891 195.392 434.818 185.816C426.645 173.441 414.27 164.563 399.788 161.295C387.179 158.262 379.469 145.881 382.274 133.272C385.307 120.662 397.688 112.952 410.297 115.757C436.684 121.83 459.104 137.707 474.049 160.362C485.261 177.648 491.099 197.498 490.866 218.047H490.865Z" fill="black"/>
</svg>
