<svg width="62" height="62" viewBox="0 0 62 62" fill="none" xmlns="http://www.w3.org/2000/svg">
<path fill-rule="evenodd" clip-rule="evenodd" d="M49.1919 0.343872H12.606C5.87067 0.343872 0.410645 5.8039 0.410645 12.5392V27H30.91L25.1984 21.2885C23.734 19.824 23.734 17.4497 25.1984 15.9852C26.6629 14.5207 29.0373 14.5207 30.5017 15.9852L42.6971 28.1805C44.1615 29.645 44.1615 32.0193 42.6971 33.4838L30.5017 45.6791C29.0373 47.1436 26.6629 47.1436 25.1984 45.6791C23.734 44.2147 23.734 41.8403 25.1984 40.3758L31.0743 34.5H0.410645V49.1251C0.410645 55.8604 5.87067 61.3205 12.606 61.3205H49.1919C55.9272 61.3205 61.3872 55.8604 61.3872 49.1251V12.5392C61.3872 5.8039 55.9272 0.343872 49.1919 0.343872Z" fill="#FFFCFC"/>
</svg>
