<svg width="24" height="12" viewBox="0 0 24 12" fill="none" xmlns="http://www.w3.org/2000/svg">
<path fill-rule="evenodd" clip-rule="evenodd" d="M9 1.30086C9 0.568546 8.39332 -0.0221626 7.66201 0.0161226C2.00687 0.312179 0 1.53189 0 6.00003C0 10.4682 2.00687 11.6879 7.66201 11.9839C8.39332 12.0222 9 11.4315 9 10.6992V10.6992C9 9.99527 8.43972 9.42217 7.7368 9.38429C7.32182 9.36193 6.93228 9.33437 6.56624 9.30071C5.12549 9.1682 4.23664 8.95506 3.68232 8.70831C3.20884 8.49755 3.03863 8.29306 2.92435 8.06954C2.76724 7.76226 2.6 7.16703 2.6 6.00003C2.6 4.83303 2.76724 4.2378 2.92435 3.93051C3.03863 3.707 3.20884 3.50251 3.68232 3.29175C4.23664 3.045 5.12549 2.83186 6.56624 2.69935C6.93228 2.66569 7.32182 2.63813 7.7368 2.61577C8.43972 2.57789 9 2.00479 9 1.30086V1.30086ZM15 10.6992C15 9.99527 15.5603 9.42217 16.2632 9.38429C16.6782 9.36193 17.0677 9.33437 17.4338 9.30071C18.8745 9.1682 19.7634 8.95506 20.3177 8.70831C20.7912 8.49755 20.9614 8.29306 21.0757 8.06954C21.2328 7.76226 21.4 7.16703 21.4 6.00003C21.4 4.83303 21.2328 4.2378 21.0757 3.93051C20.9614 3.707 20.7912 3.50251 20.3177 3.29175C19.7634 3.045 18.8745 2.83186 17.4338 2.69935C17.0677 2.66569 16.6782 2.63813 16.2632 2.61577C15.5603 2.57789 15 2.00479 15 1.30086V1.30086C15 0.568546 15.6067 -0.0221626 16.338 0.0161226C21.9931 0.312179 24 1.53189 24 6.00003C24 10.4682 21.9931 11.6879 16.338 11.9839C15.6067 12.0222 15 11.4315 15 10.6992V10.6992Z" fill="white"/>
<path d="M7 6H17" stroke="white" stroke-width="2.45" stroke-linecap="round" stroke-linejoin="round"/>
</svg>
