<svg width="20" height="20" viewBox="0 0 20 20" fill="none" xmlns="http://www.w3.org/2000/svg">
<path fill-rule="evenodd" clip-rule="evenodd" d="M20 8.8889C20 1.48151 18.235 0 10 0C1.765 0 0 1.56889 0 8.8889C0 13.609 0.833537 16.6667 4.58354 16.6667C6.58759 16.6667 7.18374 17.6186 7.73886 18.5051C8.22249 19.2774 8.67499 20 10.0002 20C11.3255 20 11.778 19.2774 12.2616 18.5051C12.8167 17.6186 13.4129 16.6667 15.4169 16.6667C19.1669 16.6667 20 13.7037 20 8.8889ZM14.6019 7.62267C14.9944 7.86301 15.1177 8.37602 14.8774 8.76852L14.8765 8.76992L14.8755 8.7716L14.8729 8.77576L14.8657 8.78725C14.8626 8.7922 14.8589 8.79797 14.8547 8.80452C14.8512 8.80991 14.8473 8.81584 14.8431 8.82227C14.8245 8.85069 14.7986 8.88913 14.7659 8.93553C14.7005 9.02806 14.6063 9.15385 14.4856 9.29601C14.2479 9.57575 13.8879 9.94171 13.4204 10.2362C12.9499 10.5326 12.3387 10.7757 11.6231 10.7479C10.8973 10.7196 10.163 10.4164 9.45128 9.79369C9.33427 9.69131 9.22305 9.60718 9.11771 9.53834C8.79227 9.32573 8.52264 9.2588 8.31217 9.25063C8.02335 9.23941 7.74167 9.33476 7.46805 9.50715C7.19154 9.68135 6.95631 9.91432 6.78471 10.1163C6.70087 10.215 6.63689 10.3008 6.59532 10.3597C6.57463 10.3889 6.55978 10.4111 6.55108 10.4244L6.54234 10.438C6.3013 10.8282 5.7898 10.9505 5.39823 10.7107C5.00572 10.4704 4.88274 9.95673 5.12306 9.56422C5.12306 9.56422 5.12265 9.56489 5.83336 10L5.12306 9.56422L5.12351 9.56348L5.12454 9.56181L5.12713 9.55764L5.13434 9.54615C5.14005 9.53712 5.14759 9.52537 5.15691 9.51114C5.17553 9.48271 5.20137 9.44427 5.23416 9.39786C5.29955 9.30533 5.39368 9.17952 5.51445 9.03735C5.75208 8.75759 6.11208 8.39158 6.57962 8.09702C7.05004 7.80064 7.66121 7.55742 8.37686 7.58522C9.10266 7.61341 9.83696 7.91659 10.5487 8.53935C10.7161 8.68579 10.8716 8.7949 11.0151 8.87535C11.2817 9.02486 11.5067 9.07542 11.6879 9.08247C11.9767 9.0937 12.2584 8.99837 12.532 8.82602C12.8085 8.65185 13.0438 8.41892 13.2154 8.21694C13.2629 8.16094 13.3042 8.109 13.3385 8.06389C13.3647 8.02953 13.3868 7.99907 13.4048 7.97365C13.4255 7.94438 13.4403 7.9222 13.449 7.90892L13.4565 7.89736L13.4572 7.89617L13.4578 7.89521C13.6989 7.50506 14.2104 7.38294 14.6019 7.62267Z" fill="white"/>
</svg>
