<svg width="23" height="25" viewBox="0 0 23 25" fill="none" xmlns="http://www.w3.org/2000/svg">
<path d="M22.5 5.25V19.25C22.4984 20.5756 21.9711 21.8464 21.0338 22.7838C20.0964 23.7211 18.8256 24.2484 17.5 24.25H5.5C4.1744 24.2484 2.90356 23.7211 1.96622 22.7838C1.02888 21.8464 0.50159 20.5756 0.5 19.25V5.25C0.50159 3.9244 1.02888 2.65356 1.96622 1.71622C2.90356 0.778882 4.1744 0.251588 5.5 0.25H17.5C18.8256 0.251588 20.0964 0.778882 21.0338 1.71622C21.9711 2.65356 22.4984 3.9244 22.5 5.25ZM6.5 18.25C6.5 18.0522 6.44135 17.8589 6.33147 17.6944C6.22159 17.53 6.06541 17.4018 5.88268 17.3261C5.69996 17.2504 5.49889 17.2306 5.30491 17.2692C5.11093 17.3078 4.93275 17.403 4.79289 17.5429C4.65304 17.6827 4.5578 17.8609 4.51921 18.0549C4.48063 18.2489 4.50043 18.45 4.57612 18.6327C4.65181 18.8154 4.77998 18.9716 4.94443 19.0815C5.10888 19.1914 5.30222 19.25 5.5 19.25C5.76522 19.25 6.01957 19.1446 6.20711 18.9571C6.39464 18.7696 6.5 18.5152 6.5 18.25ZM6.5 14.25C6.5 14.0522 6.44135 13.8589 6.33147 13.6944C6.22159 13.53 6.06541 13.4018 5.88268 13.3261C5.69996 13.2504 5.49889 13.2306 5.30491 13.2692C5.11093 13.3078 4.93275 13.403 4.79289 13.5429C4.65304 13.6827 4.5578 13.8609 4.51921 14.0549C4.48063 14.2489 4.50043 14.45 4.57612 14.6327C4.65181 14.8154 4.77998 14.9716 4.94443 15.0815C5.10888 15.1914 5.30222 15.25 5.5 15.25C5.76522 15.25 6.01957 15.1446 6.20711 14.9571C6.39464 14.7696 6.5 14.5152 6.5 14.25ZM10.5 18.25C10.5 18.0522 10.4414 17.8589 10.3315 17.6944C10.2216 17.53 10.0654 17.4018 9.8827 17.3261C9.7 17.2504 9.49889 17.2306 9.30491 17.2692C9.11093 17.3078 8.93275 17.403 8.79289 17.5429C8.65304 17.6827 8.5578 17.8609 8.51921 18.0549C8.48063 18.2489 8.50043 18.45 8.57612 18.6327C8.65181 18.8154 8.77998 18.9716 8.94443 19.0815C9.10888 19.1914 9.30222 19.25 9.5 19.25C9.7652 19.25 10.0196 19.1446 10.2071 18.9571C10.3946 18.7696 10.5 18.5152 10.5 18.25ZM10.5 14.25C10.5 14.0522 10.4414 13.8589 10.3315 13.6944C10.2216 13.53 10.0654 13.4018 9.8827 13.3261C9.7 13.2504 9.49889 13.2306 9.30491 13.2692C9.11093 13.3078 8.93275 13.403 8.79289 13.5429C8.65304 13.6827 8.5578 13.8609 8.51921 14.0549C8.48063 14.2489 8.50043 14.45 8.57612 14.6327C8.65181 14.8154 8.77998 14.9716 8.94443 15.0815C9.10888 15.1914 9.30222 15.25 9.5 15.25C9.7652 15.25 10.0196 15.1446 10.2071 14.9571C10.3946 14.7696 10.5 14.5152 10.5 14.25ZM18.5 18.25C18.5 17.9848 18.3946 17.7304 18.2071 17.5429C18.0196 17.3554 17.7652 17.25 17.5 17.25H13.5C13.2348 17.25 12.9804 17.3554 12.7929 17.5429C12.6054 17.7304 12.5 17.9848 12.5 18.25C12.5 18.5152 12.6054 18.7696 12.7929 18.9571C12.9804 19.1446 13.2348 19.25 13.5 19.25H17.5C17.7652 19.25 18.0196 19.1446 18.2071 18.9571C18.3946 18.7696 18.5 18.5152 18.5 18.25ZM13.5 15.25C13.6978 15.25 13.8911 15.1914 14.0556 15.0815C14.22 14.9716 14.3482 14.8154 14.4239 14.6327C14.4996 14.45 14.5194 14.2489 14.4808 14.0549C14.4422 13.8609 14.347 13.6827 14.2071 13.5429C14.0673 13.403 13.8891 13.3078 13.6951 13.2692C13.5011 13.2306 13.3 13.2504 13.1173 13.3261C12.9346 13.4018 12.7784 13.53 12.6685 13.6944C12.5586 13.8589 12.5 14.0522 12.5 14.25C12.5 14.5152 12.6054 14.7696 12.7929 14.9571C12.9804 15.1446 13.2348 15.25 13.5 15.25ZM18.5 14.25C18.5 14.0522 18.4414 13.8589 18.3315 13.6944C18.2216 13.53 18.0654 13.4018 17.8827 13.3261C17.7 13.2504 17.4989 13.2306 17.3049 13.2692C17.1109 13.3078 16.9327 13.403 16.7929 13.5429C16.653 13.6827 16.5578 13.8609 16.5192 14.0549C16.4806 14.2489 16.5004 14.45 16.5761 14.6327C16.6518 14.8154 16.78 14.9716 16.9444 15.0815C17.1089 15.1914 17.3022 15.25 17.5 15.25C17.7652 15.25 18.0196 15.1446 18.2071 14.9571C18.3946 14.7696 18.5 14.5152 18.5 14.25ZM18.5 7.25C18.5 6.45435 18.1839 5.69129 17.6213 5.12868C17.0587 4.56607 16.2956 4.25 15.5 4.25H7.5C6.70435 4.25 5.94129 4.56607 5.37868 5.12868C4.81607 5.69129 4.5 6.45435 4.5 7.25C4.5 8.04565 4.81607 8.80871 5.37868 9.37132C5.94129 9.93393 6.70435 10.25 7.5 10.25H15.5C16.2956 10.25 17.0587 9.93393 17.6213 9.37132C18.1839 8.80871 18.5 8.04565 18.5 7.25Z" fill="#FAAD13"/>
</svg>
