<svg width="240" height="234" viewBox="0 0 240 234" fill="none" xmlns="http://www.w3.org/2000/svg">
<g clip-path="url(#clip0_222_28)">
<path d="M42.5 1.88608e-05H197.5C203.083 -0.00524284 208.612 1.09046 213.77 3.22442C218.929 5.35838 223.616 8.48871 227.564 12.4362C231.511 16.3838 234.642 21.071 236.776 26.2297C238.91 31.3885 240.005 36.9174 240 42.5V191.5C240.005 197.083 238.91 202.612 236.776 207.77C234.642 212.929 231.511 217.616 227.564 221.564C223.616 225.511 218.929 228.642 213.77 230.776C208.612 232.91 203.083 234.005 197.5 234H42.5C36.9174 234.005 31.3885 232.91 26.2297 230.776C21.071 228.642 16.3838 225.511 12.4362 221.564C8.48871 217.616 5.35838 212.929 3.22442 207.77C1.09046 202.612 -0.00524284 197.083 1.88608e-05 191.5V42.5C-0.00524284 36.9174 1.09046 31.3885 3.22442 26.2297C5.35838 21.071 8.48871 16.3838 12.4362 12.4362C16.3838 8.48871 21.071 5.35838 26.2297 3.22442C31.3885 1.09046 36.9174 -0.00524284 42.5 1.88608e-05V1.88608e-05Z" fill="#001E36"/>
<path d="M47.7959 167.6V64.6998C47.7959 63.9998 48.0959 63.5998 48.7959 63.5998C50.4959 63.5998 52.0959 63.5998 54.3959 63.4998C56.6959 63.3998 59.2959 63.3998 61.9959 63.2998C64.6959 63.1998 67.5959 63.1998 70.6959 63.0998C73.7959 62.9998 76.7959 62.9998 79.7959 62.9998C87.9959 62.9998 94.7959 63.9998 100.396 66.0998C105.416 67.8045 109.993 70.6056 113.796 74.2998C117.018 77.5326 119.508 81.4204 121.096 85.6998C122.61 89.8672 123.388 94.2659 123.396 98.6998C123.396 107.3 121.396 114.4 117.396 120C113.377 125.592 107.767 129.844 101.296 132.2C94.4959 134.7 86.9959 135.6 78.7959 135.6C76.3959 135.6 74.7959 135.6 73.7959 135.5C72.7959 135.4 71.3959 135.4 69.4959 135.4V167.5C69.5182 167.664 69.5073 167.832 69.4637 167.992C69.4201 168.152 69.3448 168.302 69.2422 168.433C69.1396 168.563 69.0118 168.672 68.8664 168.752C68.7211 168.832 68.5611 168.883 68.3959 168.9H48.9959C48.1959 168.9 47.7959 168.5 47.7959 167.6ZM69.5959 82.8998V116.5C70.9959 116.6 72.2959 116.7 73.4959 116.7H78.7959C82.6997 116.704 86.5802 116.097 90.2959 114.9C93.4838 113.962 96.3319 112.121 98.4959 109.6C100.596 107.1 101.596 103.7 101.596 99.2998C101.69 96.1749 100.892 93.0878 99.2959 90.3998C97.6285 87.8033 95.1763 85.8065 92.2959 84.6998C88.5418 83.2294 84.5249 82.5486 80.4959 82.6998C77.8959 82.6998 75.5959 82.6998 73.6959 82.7998C72.329 82.7104 70.9568 82.7439 69.5959 82.8998V82.8998Z" fill="#31A8FF"/>
<path d="M185.796 110.4C182.777 108.81 179.543 107.664 176.196 107C172.52 106.167 168.765 105.731 164.996 105.7C162.972 105.63 160.949 105.866 158.996 106.4C157.75 106.659 156.646 107.372 155.896 108.4C155.391 109.211 155.114 110.144 155.096 111.1C155.142 112.051 155.493 112.962 156.096 113.7C157.044 114.811 158.198 115.728 159.496 116.4C161.796 117.6 164.196 118.7 166.596 119.7C171.999 121.519 177.168 123.969 181.996 127C185.28 129.065 187.996 131.918 189.896 135.3C191.503 138.49 192.293 142.029 192.196 145.6C192.277 150.326 190.917 154.966 188.296 158.9C185.507 162.892 181.615 165.984 177.096 167.8C172.196 169.9 166.196 171 158.996 171C154.431 171.018 149.875 170.583 145.396 169.7C141.869 169.09 138.439 168.014 135.196 166.5C134.847 166.325 134.557 166.052 134.362 165.714C134.166 165.377 134.074 164.989 134.096 164.6V147.2C134.087 147.029 134.119 146.858 134.188 146.702C134.258 146.546 134.363 146.408 134.496 146.3C134.637 146.218 134.8 146.183 134.962 146.201C135.125 146.219 135.276 146.289 135.396 146.4C139.248 148.671 143.432 150.324 147.796 151.3C151.649 152.302 155.615 152.806 159.596 152.8C163.396 152.8 166.096 152.3 167.896 151.4C168.699 151.029 169.379 150.437 169.857 149.693C170.336 148.949 170.592 148.084 170.596 147.2C170.596 145.8 169.796 144.5 168.196 143.2C166.596 141.9 163.296 140.4 158.396 138.5C153.369 136.729 148.595 134.308 144.196 131.3C141.062 129.066 138.466 126.163 136.596 122.8C135 119.641 134.21 116.137 134.296 112.6C134.311 108.333 135.486 104.15 137.696 100.5C140.236 96.4854 143.883 93.2906 148.196 91.2998C152.896 88.8998 158.796 87.7998 165.896 87.7998C170.046 87.801 174.19 88.1018 178.296 88.6998C181.248 89.0993 184.138 89.8722 186.896 90.9998C187.335 91.1555 187.695 91.4792 187.896 91.8998C188.011 92.2902 188.078 92.6932 188.096 93.0998V109.4C188.098 109.594 188.053 109.786 187.966 109.96C187.879 110.134 187.752 110.284 187.596 110.4C187.014 110.609 186.378 110.609 185.796 110.4Z" fill="#31A8FF"/>
</g>
<defs>
<clipPath id="clip0_222_28">
<rect width="240" height="234" fill="white"/>
</clipPath>
</defs>
</svg>
