<svg width="200" height="200" viewBox="0 0 200 200" fill="none" xmlns="http://www.w3.org/2000/svg">
<g clip-path="url(#clip0_585_6)">
<g filter="url(#filter0_b_585_6)">
<path d="M180.03 75.4776C193.728 89.1157 193.778 111.278 180.142 124.978L148.253 157.014C117.005 188.408 66.2268 188.522 34.8368 157.271V157.271C3.4468 126.02 3.33181 75.2359 34.58 43.8426V43.8426C65.8281 12.4493 116.606 12.3343 147.996 43.5858L180.03 75.4776Z" fill="url(#paint0_linear_585_6)"/>
<path d="M149.316 158.073L181.205 126.036C195.426 111.749 195.373 88.6371 181.088 74.4145L149.055 42.5227C117.078 10.6867 65.3495 10.8039 33.5169 42.7843C1.68438 74.7648 1.80152 126.498 33.7786 158.334C65.7557 190.17 117.484 190.053 149.316 158.073Z" stroke="#E938C0" stroke-width="3"/>
</g>
<g filter="url(#filter1_b_585_6)">
<path fill-rule="evenodd" clip-rule="evenodd" d="M17.6429 131.937C21.4541 120.724 27.8173 110.186 36.7348 101.227C67.983 69.8341 118.761 69.7191 150.151 100.971L177.216 127.916L148.253 157.014C117.005 188.407 66.2264 188.522 34.8364 157.271C27.304 149.772 21.5724 141.148 17.6429 131.937Z" fill="url(#paint1_linear_585_6)"/>
</g>
</g>
<defs>
<filter id="filter0_b_585_6" x="-1.78076" y="7.22208" width="205.117" height="186.413" filterUnits="userSpaceOnUse" color-interpolation-filters="sRGB">
<feFlood flood-opacity="0" result="BackgroundImageFix"/>
<feGaussianBlur in="BackgroundImageFix" stdDeviation="5"/>
<feComposite in2="SourceAlpha" operator="in" result="effect1_backgroundBlur_585_6"/>
<feBlend mode="normal" in="SourceGraphic" in2="effect1_backgroundBlur_585_6" result="shape"/>
</filter>
<filter id="filter1_b_585_6" x="7.64307" y="67.607" width="179.573" height="123.028" filterUnits="userSpaceOnUse" color-interpolation-filters="sRGB">
<feFlood flood-opacity="0" result="BackgroundImageFix"/>
<feGaussianBlur in="BackgroundImageFix" stdDeviation="5"/>
<feComposite in2="SourceAlpha" operator="in" result="effect1_backgroundBlur_585_6"/>
<feBlend mode="normal" in="SourceGraphic" in2="effect1_backgroundBlur_585_6" result="shape"/>
</filter>
<linearGradient id="paint0_linear_585_6" x1="-74.7397" y1="25.0207" x2="218.26" y2="115.795" gradientUnits="userSpaceOnUse">
<stop stop-color="#E938C0" stop-opacity="0.6"/>
<stop offset="1" stop-color="#F15F79" stop-opacity="0.6"/>
</linearGradient>
<linearGradient id="paint1_linear_585_6" x1="-30.949" y1="74.2701" x2="185.741" y2="143.728" gradientUnits="userSpaceOnUse">
<stop stop-color="#F15F79" stop-opacity="0.5"/>
<stop offset="1" stop-color="#E938C0" stop-opacity="0.5"/>
</linearGradient>
<clipPath id="clip0_585_6">
<rect width="200" height="200" fill="white"/>
</clipPath>
</defs>
</svg>
