<svg width="208" height="208" viewBox="0 0 208 208" fill="none" xmlns="http://www.w3.org/2000/svg">
<rect x="35" y="43" width="136" height="121" fill="white"/>
<path fill-rule="evenodd" clip-rule="evenodd" d="M64.4286 2.5C30.2264 2.5 2.5 30.2264 2.5 64.4286V143.667C2.5 177.869 30.2264 205.595 64.4286 205.595H143.667C177.869 205.595 205.595 177.869 205.595 143.667V64.4286C205.595 30.2264 177.869 2.5 143.667 2.5H64.4286ZM65.7958 81.2784C68.6876 78.3866 73.3759 78.3866 76.2676 81.2783C79.1594 84.17 79.1594 88.8585 76.2677 91.7502L64.9956 103.022L76.2674 114.294C79.1596 117.186 79.1593 121.875 76.2676 124.766C73.376 127.658 68.6875 127.658 65.7958 124.766L49.2878 108.258C46.3961 105.367 46.3961 100.678 49.2878 97.7863L65.7958 81.2784ZM143.1 103.022L131.827 91.7505C128.936 88.8588 128.937 84.1698 131.827 81.2781C134.72 78.3866 139.408 78.3869 142.3 81.2786L158.807 97.7862C161.699 100.678 161.699 105.367 158.807 108.258L142.3 124.766C139.408 127.658 134.719 127.657 131.827 124.766C128.936 121.875 128.937 117.186 131.827 114.293L143.1 103.022ZM103.062 147.756C102.281 151.771 98.3952 154.391 94.3808 153.611C90.3669 152.831 87.7446 148.944 88.525 144.93L104.967 60.3394C105.748 56.3252 109.634 53.7032 113.65 54.4836C117.664 55.2638 120.285 59.1507 119.505 63.1652L103.062 147.756Z" fill="white"/>
<path fill-rule="evenodd" clip-rule="evenodd" d="M64.4286 2.5C30.2264 2.5 2.5 30.2264 2.5 64.4286V143.667C2.5 177.869 30.2264 205.595 64.4286 205.595H143.667C177.869 205.595 205.595 177.869 205.595 143.667V64.4286C205.595 30.2264 177.869 2.5 143.667 2.5H64.4286ZM65.7958 81.2784C68.6876 78.3866 73.3759 78.3866 76.2676 81.2783C79.1594 84.17 79.1594 88.8585 76.2677 91.7502L64.9956 103.022L76.2674 114.294C79.1596 117.186 79.1593 121.875 76.2676 124.766C73.376 127.658 68.6875 127.658 65.7958 124.766L49.2878 108.258C46.3961 105.367 46.3961 100.678 49.2878 97.7863L65.7958 81.2784ZM143.1 103.022L131.827 91.7505C128.936 88.8588 128.937 84.1698 131.827 81.2781C134.72 78.3866 139.408 78.3869 142.3 81.2786L158.807 97.7862C161.699 100.678 161.699 105.367 158.807 108.258L142.3 124.766C139.408 127.658 134.719 127.657 131.827 124.766C128.936 121.875 128.937 117.186 131.827 114.293L143.1 103.022ZM103.062 147.756C102.281 151.771 98.3952 154.391 94.3808 153.611C90.3669 152.831 87.7446 148.944 88.525 144.93L104.967 60.3394C105.748 56.3252 109.634 53.7032 113.65 54.4836C117.664 55.2638 120.285 59.1507 119.505 63.1652L103.062 147.756Z" fill="url(#paint0_linear_527_16)"/>
<defs>
<linearGradient id="paint0_linear_527_16" x1="33.2572" y1="37.3582" x2="173.715" y2="190.119" gradientUnits="userSpaceOnUse">
<stop stop-color="#2FAEEA"/>
<stop offset="1" stop-color="#9693F1"/>
</linearGradient>
</defs>
</svg>
