<svg width="208" height="208" viewBox="0 0 208 208" fill="none" xmlns="http://www.w3.org/2000/svg">
<path fill-rule="evenodd" clip-rule="evenodd" d="M64.4286 5C31.6071 5 5 31.6071 5 64.4286V143.667C5 176.488 31.6071 203.095 64.4286 203.095H143.667C176.488 203.095 203.095 176.488 203.095 143.667V64.4286C203.095 31.6071 176.488 5 143.667 5H64.4286ZM78.0354 93.518C81.9035 89.65 81.9035 83.3786 78.0354 79.5106C74.1674 75.6425 67.8961 75.6425 64.028 79.5106L47.52 96.0185C43.652 99.8866 43.652 106.158 47.52 110.026L64.028 126.534C67.8961 130.402 74.1674 130.402 78.0354 126.534C81.9035 122.666 81.9035 116.395 78.0354 112.526L68.5312 103.022L78.0354 93.518ZM130.059 79.5106C126.192 83.3786 126.192 89.65 130.059 93.518L139.564 103.022L130.059 112.526C126.192 116.395 126.192 122.666 130.059 126.534C133.928 130.402 140.199 130.402 144.068 126.534L160.575 110.026C164.443 106.158 164.443 99.8866 160.575 96.0185L144.068 79.5106C140.199 75.6425 133.928 75.6425 130.059 79.5106ZM86.0709 144.453C85.0271 149.822 88.534 155.022 93.9037 156.065C99.2734 157.109 104.472 153.603 105.516 148.233L121.959 63.6422C123.003 58.2724 119.496 53.0732 114.127 52.0295C108.756 50.9857 103.557 54.4926 102.513 59.8623L86.0709 144.453Z" fill="white"/>
<path fill-rule="evenodd" clip-rule="evenodd" d="M64.4286 5C31.6071 5 5 31.6071 5 64.4286V143.667C5 176.488 31.6071 203.095 64.4286 203.095H143.667C176.488 203.095 203.095 176.488 203.095 143.667V64.4286C203.095 31.6071 176.488 5 143.667 5H64.4286ZM78.0354 93.518C81.9035 89.65 81.9035 83.3786 78.0354 79.5106C74.1674 75.6425 67.8961 75.6425 64.028 79.5106L47.52 96.0185C43.652 99.8866 43.652 106.158 47.52 110.026L64.028 126.534C67.8961 130.402 74.1674 130.402 78.0354 126.534C81.9035 122.666 81.9035 116.395 78.0354 112.526L68.5312 103.022L78.0354 93.518ZM130.059 79.5106C126.192 83.3786 126.192 89.65 130.059 93.518L139.564 103.022L130.059 112.526C126.192 116.395 126.192 122.666 130.059 126.534C133.928 130.402 140.199 130.402 144.068 126.534L160.575 110.026C164.443 106.158 164.443 99.8866 160.575 96.0185L144.068 79.5106C140.199 75.6425 133.928 75.6425 130.059 79.5106ZM86.0709 144.453C85.0271 149.822 88.534 155.022 93.9037 156.065C99.2734 157.109 104.472 153.603 105.516 148.233L121.959 63.6422C123.003 58.2724 119.496 53.0732 114.127 52.0295C108.756 50.9857 103.557 54.4926 102.513 59.8623L86.0709 144.453Z" fill="url(#paint0_linear_338_40)"/>
<defs>
<linearGradient id="paint0_linear_338_40" x1="203" y1="65.5" x2="5" y2="147.5" gradientUnits="userSpaceOnUse">
<stop stop-color="#F15F79"/>
<stop offset="1" stop-color="#E938C0"/>
</linearGradient>
</defs>
</svg>
