<svg width="64" height="64" viewBox="0 0 64 64" fill="none" xmlns="http://www.w3.org/2000/svg">
<mask id="mask0_503_27" style="mask-type:alpha" maskUnits="userSpaceOnUse" x="0" y="0" width="64" height="64">
<path d="M52 0H12C5.37258 0 0 5.37258 0 12V52C0 58.6274 5.37258 64 12 64H52C58.6274 64 64 58.6274 64 52V12C64 5.37258 58.6274 0 52 0Z" fill="url(#paint0_linear_503_27)"/>
</mask>
<g mask="url(#mask0_503_27)">
<path d="M64 -2.75H-3.75V63.5H64V-2.75Z" fill="#D9D9D9"/>
<path d="M64 -2.75H-3.75V63.5H64V-2.75Z" fill="url(#paint1_linear_503_27)"/>
<path d="M61.2696 59.2647L32.9853 30.9804C28.299 26.2941 20.701 26.2941 16.0147 30.9804L-12.2696 59.2647C-16.9558 63.951 -16.9558 71.5489 -12.2696 76.2352L16.0147 104.52C20.701 109.206 28.299 109.206 32.9853 104.52L61.2696 76.2352C65.9558 71.5489 65.9558 63.951 61.2696 59.2647Z" fill="#153F7A"/>
<path d="M82.0244 68.7695L53.7402 40.4853C49.0539 35.799 41.4559 35.799 36.7696 40.4853L8.48533 68.7696C3.79904 73.4558 3.79904 81.0538 8.48533 85.7401L36.7696 114.024C41.4559 118.711 49.0539 118.711 53.7402 114.024L82.0244 85.7401C86.7107 81.0538 86.7107 73.4558 82.0244 68.7695Z" fill="#436DCD"/>
<path d="M48 21C50.7614 21 53 18.7614 53 16C53 13.2386 50.7614 11 48 11C45.2386 11 43 13.2386 43 16C43 18.7614 45.2386 21 48 21Z" fill="white"/>
</g>
<defs>
<linearGradient id="paint0_linear_503_27" x1="-2.25" y1="6.75" x2="64.75" y2="62.75" gradientUnits="userSpaceOnUse">
<stop stop-color="#29AFEA"/>
<stop offset="1" stop-color="#AB8EF3"/>
</linearGradient>
<linearGradient id="paint1_linear_503_27" x1="1.25" y1="3" x2="62.637" y2="64.8527" gradientUnits="userSpaceOnUse">
<stop stop-color="#29AFEA"/>
<stop offset="1" stop-color="#AB8EF3"/>
</linearGradient>
</defs>
</svg>
