<svg width="199" height="199" viewBox="0 0 199 199" fill="none" xmlns="http://www.w3.org/2000/svg">
<path fill-rule="evenodd" clip-rule="evenodd" d="M174 34H22V169H22.0014L22.0014 169.5H174L173.992 169H174V34ZM173.992 169L172 47.0295C172 20 22.0005 58.6422 22.0005 58.6422L22.0014 169H173.992ZM73.0356 74.5106C76.9037 78.3786 76.9037 84.65 73.0356 88.518L63.5314 98.022L73.0356 107.526C76.9037 111.395 76.9037 117.666 73.0356 121.534C69.1676 125.402 62.8963 125.402 59.0282 121.534L42.5202 105.026C38.6522 101.158 38.6522 94.8866 42.5202 91.0185L59.0282 74.5106C62.8963 70.6425 69.1676 70.6425 73.0356 74.5106ZM125.059 88.518C121.192 84.65 121.192 78.3786 125.059 74.5106C128.928 70.6425 135.199 70.6425 139.068 74.5106L155.575 91.0185C159.443 94.8866 159.443 101.158 155.575 105.026L139.068 121.534C135.199 125.402 128.928 125.402 125.059 121.534C121.192 117.666 121.192 111.395 125.059 107.526L134.564 98.022L125.059 88.518ZM88.904 151.065C83.5343 150.022 80.0273 144.822 81.0711 139.453L97.5133 54.8623C98.5573 49.4926 103.756 45.9857 109.127 47.0295C114.496 48.0732 118.003 53.2724 116.959 58.6422L100.516 143.233C99.4723 148.603 94.2737 152.109 88.904 151.065Z" fill="white"/>
<path fill-rule="evenodd" clip-rule="evenodd" d="M59.4286 0C26.6071 0 0 26.6071 0 59.4286V138.667C0 171.488 26.6071 198.095 59.4286 198.095H138.667C171.488 198.095 198.095 171.488 198.095 138.667V59.4286C198.095 26.6071 171.488 0 138.667 0H59.4286ZM73.0354 88.518C76.9035 84.65 76.9035 78.3786 73.0354 74.5106C69.1674 70.6425 62.8961 70.6425 59.028 74.5106L42.52 91.0185C38.652 94.8866 38.652 101.158 42.52 105.026L59.028 121.534C62.8961 125.402 69.1674 125.402 73.0354 121.534C76.9035 117.666 76.9035 111.395 73.0354 107.526L63.5312 98.022L73.0354 88.518ZM125.059 74.5106C121.192 78.3786 121.192 84.65 125.059 88.518L134.564 98.022L125.059 107.526C121.192 111.395 121.192 117.666 125.059 121.534C128.928 125.402 135.199 125.402 139.068 121.534L155.575 105.026C159.443 101.158 159.443 94.8866 155.575 91.0185L139.068 74.5106C135.199 70.6425 128.928 70.6425 125.059 74.5106ZM81.0709 139.453C80.0271 144.822 83.534 150.022 88.9037 151.065C94.2734 152.109 99.472 148.603 100.516 143.233L116.959 58.6422C118.003 53.2724 114.496 48.0732 109.127 47.0295C103.756 45.9857 98.557 49.4926 97.513 54.8623L81.0709 139.453Z" fill="url(#paint0_linear_454_29)"/>
<defs>
<linearGradient id="paint0_linear_454_29" x1="198" y1="60.5" x2="-3.95794e-06" y2="142.5" gradientUnits="userSpaceOnUse">
<stop stop-color="#F15F79"/>
<stop offset="1" stop-color="#E938C0"/>
</linearGradient>
</defs>
</svg>
