<svg width="31" height="31" viewBox="0 0 31 31" fill="none" xmlns="http://www.w3.org/2000/svg">
<path fill-rule="evenodd" clip-rule="evenodd" d="M15.8944 25.489L15.9744 30.394C15.2424 30.3944 14.539 30.1096 14.0134 29.6L13.6304 29.144L4.32542 18.079L1.16042 14.312C1.15211 14.3076 1.14545 14.3005 1.14142 14.292L1.09142 14.234L1.08142 14.221C1.01953 14.1394 0.969995 14.0491 0.934422 13.953C0.887087 13.8352 0.861016 13.7099 0.857422 13.583V13.507C0.857422 13.483 0.859422 13.458 0.864422 13.434C0.886304 13.1876 0.990583 12.9558 1.16042 12.776C1.36342 12.556 1.65842 12.416 1.98242 12.416H5.10742L15.8934 25.491L15.8954 25.489H15.8944Z" fill="#FCD1CA"/>
<path fill-rule="evenodd" clip-rule="evenodd" d="M15.8924 19.6071V25.6861L1.13845 8.08005C1.04983 7.98082 0.980029 7.86629 0.932445 7.74205C0.885726 7.62305 0.860011 7.49685 0.856445 7.36905V7.29405C0.864445 7.01205 0.977445 6.75905 1.15945 6.56605C1.36145 6.34305 1.65645 6.20605 1.98145 6.20605H4.77945L15.8924 19.6061V19.6071Z" fill="#FF9D8D"/>
<path fill-rule="evenodd" clip-rule="evenodd" d="M1.97542 0.323044C1.65342 0.323044 1.35742 0.459044 1.15742 0.681044C0.977422 0.870044 0.865422 1.12604 0.857422 1.40504V1.47904C0.860422 1.61204 0.886422 1.73604 0.933422 1.84904C0.934422 1.86004 0.939422 1.86904 0.943422 1.87904C0.992257 1.99665 1.06206 2.1044 1.14942 2.19704L1.16542 2.21504L15.8924 19.607V30.394C16.6203 30.3956 17.32 30.1128 17.8424 29.606C17.8454 29.606 17.8454 29.606 17.8454 29.604L30.6454 14.408C30.6614 14.392 30.6754 14.374 30.6894 14.356C30.7574 14.272 30.8114 14.177 30.8514 14.073C30.9014 13.949 30.9274 13.813 30.9274 13.668V1.44004C30.9287 1.15662 30.8205 0.883652 30.6254 0.678044C30.5212 0.564935 30.3946 0.474841 30.2535 0.413537C30.1125 0.352232 29.9602 0.321069 29.8064 0.322044H1.97642L1.97542 0.323044Z" fill="#FF6661"/>
</svg>
