<svg width="680" height="610" viewBox="0 0 680 610" fill="none" xmlns="http://www.w3.org/2000/svg">
<path d="M679.816 305.127C679.816 250.755 624.312 211.109 545.026 186.189C563.15 105.764 556.354 37.8059 509.911 10.6201C463.469 -16.5657 400.035 11.7528 340 67.2572C279.964 11.7528 216.531 -16.5657 170.088 10.6201C123.646 37.8059 116.85 105.77 134.973 186.189C55.6815 211.109 0.183594 250.755 0.183594 305.127C0.183594 359.498 55.688 399.144 134.973 424.064C116.85 504.489 123.646 572.447 170.088 599.633C182.549 606.429 196.142 609.828 209.734 609.828C249.38 609.828 295.823 583.775 339.993 541.863C384.17 582.642 430.613 609.828 470.252 609.828C483.845 609.828 497.438 606.429 509.898 599.633C556.341 572.447 563.137 504.483 545.013 424.064C624.305 399.144 679.803 359.498 679.803 305.127H679.816ZM487.25 50.2531C509.905 63.846 515.568 110.288 501.975 174.855C477.055 169.191 449.869 164.66 422.683 162.395C406.825 139.74 389.834 119.35 371.71 100.094C420.418 55.9169 464.595 36.6602 487.25 50.2531ZM478.188 359.498C482.719 370.826 486.117 381.02 489.515 392.348L455.533 399.144C458.931 392.348 463.462 386.684 466.86 379.888C471.391 371.958 474.79 365.162 478.188 359.498ZM428.347 356.1C418.152 373.091 407.958 390.082 397.763 404.808C378.507 405.941 360.383 407.073 339.993 407.073C319.604 407.073 301.48 405.941 282.223 404.808C272.029 388.949 261.834 373.091 251.639 356.1C241.445 339.109 232.383 322.118 224.454 305.127C232.383 288.135 241.445 271.144 251.639 254.153C261.834 237.162 272.029 220.171 282.223 205.445C300.347 204.313 319.604 203.18 339.993 203.18C360.383 203.18 378.507 204.313 397.763 205.445C407.958 221.304 418.152 237.162 428.347 254.153C438.542 271.144 447.604 288.135 455.533 305.127C447.604 322.118 438.542 339.109 428.347 356.1ZM339.993 478.436C332.064 470.507 325.268 461.445 317.338 452.383H339.993H362.648C354.719 461.445 347.922 469.374 339.993 478.436ZM211.993 378.755C215.392 385.551 219.923 391.215 223.321 398.011L189.339 391.215C192.737 381.02 196.135 369.693 200.666 358.365C205.197 365.162 208.595 371.958 211.993 378.755ZM201.799 250.755C197.268 239.428 193.87 229.233 190.471 217.905L224.454 211.109C221.055 217.905 216.524 223.569 213.126 230.366C208.595 238.295 205.197 245.091 201.799 250.755ZM339.993 131.817C347.922 139.746 354.719 148.808 362.648 157.87H339.993H317.338C325.268 148.808 332.064 140.879 339.993 131.817ZM467.993 231.498C464.595 224.702 460.064 219.038 456.666 212.242L490.648 219.038C487.25 229.233 483.852 240.56 479.321 251.888C474.79 245.091 471.391 238.295 467.993 231.498ZM192.743 50.2596C197.274 47.9941 202.938 45.7286 209.734 45.7286C234.655 45.7286 269.77 64.9853 308.283 100.1C291.292 119.357 274.301 139.746 257.31 162.401C230.124 165.799 202.938 169.198 178.018 174.861C164.425 110.295 170.088 63.8525 192.743 50.2596ZM45.4868 305.133C45.4868 279.08 84 250.761 146.301 230.372C154.23 255.292 163.292 280.213 174.619 305.133C163.292 330.053 154.23 354.974 146.301 379.894C84 359.505 45.4868 331.186 45.4868 305.133ZM192.743 560.006C170.088 546.414 164.425 499.971 178.018 435.405C202.938 441.069 230.124 445.6 257.31 447.865C273.168 470.52 290.159 490.909 308.283 510.166C259.575 554.343 215.398 573.599 192.743 560.006ZM487.256 560.006C464.601 573.599 420.424 554.343 371.717 510.166C388.708 490.909 405.699 470.52 422.69 447.865C449.876 444.467 477.062 441.069 501.982 435.405C515.575 499.971 509.911 546.414 487.256 560.006ZM533.699 379.907C525.769 354.987 516.708 330.066 505.38 305.146C516.708 280.226 525.769 255.305 533.699 230.385C595.999 250.774 634.513 279.093 634.513 305.146C634.513 331.199 595.999 359.518 533.699 379.907Z" fill="#61DAFB"/>
<path d="M397.919 305.001C397.919 336.989 371.989 362.919 340 362.919C308.012 362.919 282.082 336.989 282.082 305.001C282.082 273.011 308.012 247.082 340 247.082C371.989 247.082 397.919 273.011 397.919 305.001Z" fill="#61DAFB"/>
</svg>
