<svg width="24" height="24" viewBox="0 0 24 24" fill="none" xmlns="http://www.w3.org/2000/svg">
<path d="M22.5 15.75V2.25C22.5 1.00734 21.4922 0 20.25 0H6C3.51469 0 1.5 2.01469 1.5 4.5V19.5C1.5 21.9853 3.51469 24 6 24H21C21.8283 24 22.5 23.3283 22.5 22.5422C22.5 21.9928 22.1903 21.5334 21.75 21.2719V17.4581C22.2094 17.0063 22.5 16.4156 22.5 15.75ZM8.20781 6H17.2078C17.6625 6 18 6.3375 18 6.75C18 7.1625 17.6625 7.5 17.25 7.5H8.20781C7.8375 7.5 7.5 7.1625 7.5 6.75C7.5 6.3375 7.8375 6 8.20781 6ZM8.20781 9H17.2078C17.6625 9 18 9.3375 18 9.75C18 10.1625 17.6625 10.5 17.25 10.5H8.20781C7.8375 10.5 7.5 10.1625 7.5 9.75C7.5 9.3375 7.8375 9 8.20781 9ZM19.5 21H6C5.17172 21 4.5 20.3283 4.5 19.5C4.5 18.6717 5.17172 18 6 18H19.5V21Z" fill="white"/>
</svg>
