<svg width="420" height="497" viewBox="0 0 420 497" fill="none" xmlns="http://www.w3.org/2000/svg">
<path d="M417.201 63.4001C412.401 44.2001 398.801 28.2001 378.001 17.0001C337.201 -4.59992 271.601 -5.39991 211.601 16.2001C175.601 29.0001 107.601 57.8001 56.4013 105C5.20131 153 -2.79867 195.4 1.20133 212.2C10.0013 258.6 58.8013 291.4 97.2013 318.6C107.601 325.8 117.201 332.2 124.401 338.6C102.801 349.8 44.4013 382.6 28.4013 417C16.4013 444.2 22.0013 464.2 26.8013 473C31.6013 483.4 39.6013 491.4 47.6013 493.8C55.6013 496.2 64.4013 497 73.2013 497C107.601 497 141.201 478.6 162.001 447.4C182.801 416.2 184.401 374.6 174.801 349C188.401 345.8 202.801 345.8 218.801 347.4C250.001 351.4 265.201 363.4 272.401 373C280.401 383.4 282.001 393.8 281.201 400.2C279.601 412.2 270.001 419.4 265.201 422.6C261.201 425 258.001 427.4 258.801 432.2C260.401 438.6 266.801 437.8 269.201 437.8C276.401 436.2 302.001 423.4 303.601 394.6C304.401 377 297.201 359.4 283.601 345C266.001 326.6 239.601 317 209.201 317.8C186.801 317.8 171.601 320.2 159.601 324.2L158.801 323.4C147.601 311.4 132.401 300.2 118.801 289C86.8013 265 57.2013 241.8 58.8013 207.4C61.2013 164.2 103.601 121.8 186.001 81.0001C258.801 45.0001 318.001 43.4001 349.201 54.6001C362.001 59.4001 370.801 65.8001 374.001 73.0001C380.401 86.6001 378.001 104.2 366.801 123.4C348.401 155.4 302.001 195.4 230.801 203.4C187.601 208.2 169.201 189 168.401 188.2C163.601 182.6 160.401 179.4 154.801 182.6C148.401 185.8 151.601 194.6 153.201 197.8C156.401 206.6 170.001 221.8 193.201 229.8C211.601 236.2 258.801 240.2 317.201 217.8C384.401 190.6 430.801 118.6 417.201 63.4001ZM141.201 404.2C140.401 405.8 140.401 407.4 139.601 409C138.801 410.6 138.001 412.2 138.001 413.8C134.801 421 130.001 428.2 123.601 434.6C105.201 454.6 80.4013 460.2 72.4013 455.4C70.0013 453.8 69.2013 451.4 68.4013 448.2C66.8013 438.6 72.4013 419.4 89.2013 402.6C109.201 381.8 137.201 366.6 143.601 363.4C146.001 377.8 145.201 391.4 141.201 404.2Z" fill="#CC6699"/>
</svg>
