<svg width="24" height="24" viewBox="0 0 24 24" fill="none" xmlns="http://www.w3.org/2000/svg">
<path d="M16.7438 0.931238V2.51247C16.7438 2.9496 16.3896 3.30308 15.9532 3.30308H8.04708C7.61066 3.30308 7.25647 2.9496 7.25647 2.51247V0.931238C7.25647 0.494106 7.61066 0.140625 8.04708 0.140625H15.9532C16.3896 0.140625 16.7438 0.494106 16.7438 0.931238ZM16.1113 11.2092H13.5814C13.1465 11.2092 12.7908 10.8534 12.7908 10.4186C12.7908 9.98376 13.1465 9.62799 13.5814 9.62799H15.9532V8.04676H13.5814C13.1465 8.04676 12.7908 7.69098 12.7908 7.25615C12.7908 6.82131 13.1465 6.46553 13.5814 6.46553H15.9532V4.88431H8.04708V10.972L5.77793 14.3717H18.2222L16.1113 11.2092ZM20.6567 18.0252L19.2754 15.953H4.72497L3.34298 18.0252C2.35702 19.5037 2.15069 20.9466 2.76113 22.0889C3.37298 23.2306 4.68775 23.8592 6.4659 23.8592H17.5345C19.3126 23.8592 20.6274 23.2306 21.2385 22.0889C21.8497 20.9466 21.6425 19.5037 20.6567 18.0252V18.0252Z" fill="white"/>
</svg>
