<svg width="13" height="20" viewBox="0 0 13 20" fill="none" xmlns="http://www.w3.org/2000/svg">
<path fill-rule="evenodd" clip-rule="evenodd" d="M7.33095 0.0259688C6.82724 -0.0831441 6.41294 0.172825 6.14927 0.398727C5.87425 0.634358 5.60588 0.970031 5.33972 1.3494C4.80861 2.10639 4.14477 3.24695 3.29943 4.69936L0.878595 8.85861C0.598875 9.3391 0.348385 9.76938 0.196395 10.1271C0.0465648 10.4797 -0.122335 11.0155 0.127575 11.5605C0.391905 12.1368 0.920455 12.2946 1.28335 12.3521C1.63545 12.4078 2.09283 12.4078 2.58567 12.4077L4.90323 12.4076L4.60131 14.0714C4.31767 15.6345 4.09229 16.8765 4.01962 17.7425C3.98363 18.1713 3.97515 18.6019 4.05774 18.9636C4.14705 19.3548 4.39936 19.849 4.9767 19.974C5.48043 20.0831 5.89474 19.8272 6.15844 19.6013C6.43344 19.3656 6.70185 19.03 6.96795 18.6506C7.49905 17.8936 8.16294 16.7531 9.00824 15.3007L11.429 11.1414C11.7088 10.6609 11.9593 10.2306 12.1113 9.87294C12.2611 9.52034 12.43 8.98445 12.1801 8.43954C11.9157 7.86318 11.3872 7.70544 11.0243 7.64794C10.6722 7.59216 10.2148 7.59223 9.72204 7.59232L7.40444 7.59235L7.70634 5.92853C7.99004 4.36544 8.21534 3.12347 8.28804 2.25747C8.32404 1.82865 8.33254 1.39811 8.24994 1.03636C8.16064 0.645173 7.90835 0.151025 7.33095 0.0259688Z" fill="#0F234D"/>
</svg>
