<svg width="514" height="513" viewBox="0 0 514 513" fill="none" xmlns="http://www.w3.org/2000/svg">
<rect x="50.8887" y="153.503" width="437.111" height="329.497" fill="white"/>
<path fill-rule="evenodd" clip-rule="evenodd" d="M41.3572 1.40796C21.2672 5.37196 4.83124 22.543 2.02424 42.5C0.624236 52.452 0.663237 461.317 2.06424 470C5.39624 490.638 23.0542 508.1 43.5002 510.976C53.4522 512.376 462.317 512.337 471 510.936C491.468 507.632 508.804 490.311 511.971 470C513.446 460.543 513.375 50.904 511.897 42.082C508.438 21.428 491.393 4.33096 471 1.05796C461.061 -0.537043 49.5152 -0.202041 41.3572 1.40796ZM433.5 239.485C443.018 240.863 456.783 244.22 459.766 245.889C460.888 246.517 461.154 251.036 461.148 269.429C461.144 281.949 460.967 292.366 460.755 292.579C460.542 292.791 457.392 291.384 453.754 289.453C425.526 274.464 385.823 274.566 374.312 289.658C370.789 294.276 369.952 302.988 372.512 308.383C376.287 316.34 389.036 324.508 414 334.965C424.305 339.282 439.118 347.286 445.423 351.943C457.567 360.915 466.175 373.393 469.605 387C472.089 396.851 471.136 417.147 467.763 426.227C456.904 455.466 428.469 470 382.124 470C358.386 470 340.687 467.215 325.5 461.091L318.5 458.269L318 434.035C317.725 420.707 317.788 409.338 318.139 408.771C318.52 408.158 320.75 409.25 323.639 411.464C330.854 416.992 347.339 424.662 357 426.986C381.131 432.79 405.452 429.141 413.569 418.499C417.25 413.672 418.173 404.194 415.475 398.906C411.236 390.596 398.651 382.172 377.5 373.485C341.299 358.618 324.361 343.413 318.522 320.54C316.569 312.891 316.578 296.415 318.54 288.093C324.581 262.464 348.877 244.146 383.5 239.116C393.368 237.682 422.539 237.897 433.5 239.485ZM298 263.5C298 274.775 297.663 284.005 297.25 284.01C296.837 284.016 282.55 284.128 265.5 284.26L234.5 284.5L234.245 375.75L233.989 467H208.245H182.5V375.75V284.5H150.749H118.999V263.75L119 243H208.5H298V263.5Z" fill="#3178C6"/>
</svg>
