<svg xmlns="http://www.w3.org/2000/svg" fill="none" viewBox="0 0 1154 1564" height="1564" width="1154">
<path fill="#3174B9" d="M371.406 1209.4C371.406 1209.4 311.693 1244.15 413.947 1255.88C537.86 1270.03 601.152 1268 737.659 1242.17C737.659 1242.17 773.598 1264.68 823.765 1284.14C517.666 1415.31 131.011 1276.56 371.406 1209.4ZM333.988 1038.24C333.988 1038.24 266.999 1087.82 369.344 1098.41C501.713 1112.08 606.198 1113.19 787.113 1078.38C787.113 1078.38 812.093 1103.74 851.404 1117.59C481.364 1225.82 69.2364 1126.11 333.988 1038.24Z" clip-rule="evenodd" fill-rule="evenodd"></path>
<path fill="#CA3132" d="M649.286 747.86C724.744 834.718 629.507 912.835 629.507 912.835C629.507 912.835 821.018 813.992 733.057 690.17C650.933 574.752 587.939 517.413 928.927 319.676C928.927 319.676 393.665 453.303 649.286 747.86Z" clip-rule="evenodd" fill-rule="evenodd"></path>
<path fill="#3174B9" d="M1054.11 1336.01C1054.11 1336.01 1098.31 1372.46 1005.42 1400.64C828.786 1454.14 270.113 1470.28 114.93 1402.77C59.1858 1378.49 163.774 1344.83 196.678 1337.72C230.996 1330.31 250.581 1331.65 250.581 1331.65C188.546 1287.97 -150.393 1417.45 78.4459 1454.6C702.447 1555.77 1215.95 1409.05 1054.11 1336.01ZM400.135 860.878C400.135 860.878 115.993 928.386 299.529 952.925C377.049 963.288 531.467 960.901 675.418 948.826C793.028 938.956 911.079 917.842 911.079 917.842C911.079 917.842 869.64 935.623 839.615 956.089C551.025 1032 -6.38933 996.646 154.099 919.048C289.788 853.408 400.135 860.878 400.135 860.878ZM909.899 1145.79C1203.24 993.39 1067.61 846.91 972.919 866.65C949.768 871.488 939.379 875.664 939.379 875.664C939.379 875.664 948.017 862.149 964.436 856.339C1151.73 790.517 1295.75 1050.52 904.049 1153.49C904.036 1153.49 908.55 1149.42 909.899 1145.79Z" clip-rule="evenodd" fill-rule="evenodd"></path>
<path fill="#CA3132" d="M733.056 0.294922C733.056 0.294922 895.476 162.819 578.962 412.656C325.131 613.142 521.091 727.419 578.884 858.037C430.692 724.358 321.992 606.657 394.908 497.141C501.96 336.38 798.592 258.419 733.056 0.294922Z" clip-rule="evenodd" fill-rule="evenodd"></path>
<path fill="#3174B9" d="M428.993 1558.87C710.515 1576.87 1142.91 1548.87 1153.17 1415.63C1153.17 1415.63 1133.48 1466.14 920.482 1506.2C680.165 1551.44 383.715 1546.17 207.949 1517.16C207.949 1517.16 243.966 1546.96 428.993 1558.87Z" clip-rule="evenodd" fill-rule="evenodd"></path>
</svg>
