<svg width="20" height="20" viewBox="0 0 20 20" fill="none" xmlns="http://www.w3.org/2000/svg">
<path fill-rule="evenodd" clip-rule="evenodd" d="M11.1771 0.0259688C10.6734 -0.0831441 10.2591 0.172825 9.99543 0.398727C9.72041 0.634358 9.45204 0.970031 9.18588 1.3494C8.65477 2.10639 7.99093 3.24695 7.14559 4.69936L4.72475 8.85861C4.44503 9.3391 4.19454 9.76938 4.04255 10.1271C3.89272 10.4797 3.72382 11.0155 3.97373 11.5605C4.23806 12.1368 4.76661 12.2946 5.12951 12.3521C5.48161 12.4078 5.93899 12.4078 6.43183 12.4077L8.74939 12.4076L8.44747 14.0714C8.16383 15.6345 7.93845 16.8765 7.86578 17.7425C7.82979 18.1713 7.82131 18.6019 7.9039 18.9636C7.99321 19.3548 8.24552 19.849 8.82286 19.974C9.32659 20.0831 9.7409 19.8272 10.0046 19.6013C10.2796 19.3656 10.548 19.03 10.8141 18.6506C11.3452 17.8936 12.0091 16.7531 12.8544 15.3007L15.2752 11.1414C15.555 10.6609 15.8055 10.2306 15.9575 9.87294C16.1073 9.52034 16.2762 8.98445 16.0263 8.43954C15.7619 7.86318 15.2334 7.70544 14.8705 7.64794C14.5184 7.59216 14.061 7.59223 13.5682 7.59232L11.2506 7.59235L11.5525 5.92853C11.8362 4.36544 12.0615 3.12347 12.1342 2.25747C12.1702 1.82865 12.1787 1.39811 12.0961 1.03636C12.0068 0.645173 11.7545 0.151025 11.1771 0.0259688Z" fill="white"/>
</svg>
