<svg width="168" height="168" viewBox="0 0 168 168" fill="none" xmlns="http://www.w3.org/2000/svg">
<path d="M105.961 9.33285C100.106 3.60641 92.3015 0.2748 84.0933 0C75.8858 0.275001 68.0815 3.60624 62.2256 9.33285L5.91363 56.0009C2.13958 59.9212 0.0229843 65.1337 0.00126327 70.5602V136.452C-0.0741547 144.826 3.23004 152.879 9.1757 158.809C15.121 164.738 23.2099 168.049 31.6297 168H42.1412C44.93 168 47.6026 166.898 49.5744 164.938C51.5446 162.978 52.6523 160.318 52.6523 157.546V126.28C52.6271 120.743 54.8221 115.426 58.7501 111.503C62.6766 107.58 68.0157 105.373 73.5821 105.373H94.6052C100.172 105.373 105.511 107.58 109.438 111.503C113.365 115.426 115.56 120.744 115.535 126.28V157.546C115.535 160.318 116.643 162.978 118.613 164.938C120.585 166.898 123.258 168 126.046 168H136.558C144.896 168 152.894 164.705 158.79 158.841C164.685 152.978 167.999 145.024 167.999 136.732V70.8402C168.048 65.3153 165.927 59.9901 162.085 55.9993L105.961 9.33285Z" fill="white"/>
</svg>
